<svg width="40" height="40" viewBox="0 0 40 40" fill="none" xmlns="http://www.w3.org/2000/svg">
    <g clip-path="url(#clipChangelog)">
        <path d="M28.4683 22.5463C27.8634 22.5463 27.3658 22.0585 27.3658 21.4439V18.2049C27.3658 17.6 27.8537 17.1024 28.4683 17.1024C29.0732 17.1024 29.5707 17.5902 29.5707 18.2049V21.4439C29.5707 22.0585 29.0732 22.5463 28.4683 22.5463Z" stroke="#F3652B" stroke-miterlimit="10" stroke-linecap="round" stroke-linejoin="round"/>
        <path d="M28.4683 39.2C27.8634 39.2 27.3658 38.7122 27.3658 38.0976V34.8585C27.3658 34.2537 27.8537 33.7561 28.4683 33.7561C29.0732 33.7561 29.5707 34.2439 29.5707 34.8585V38.0976C29.5707 38.7024 29.0732 39.2 28.4683 39.2Z" stroke="#F3652B" stroke-miterlimit="10" stroke-linecap="round" stroke-linejoin="round"/>
        <path d="M22.8683 28.156C22.8683 28.7609 22.3805 29.2585 21.7659 29.2585H18.5269C17.922 29.2585 17.4244 28.7707 17.4244 28.156C17.4244 27.5512 17.9122 27.0536 18.5269 27.0536H21.7659C22.3708 27.0536 22.8683 27.5512 22.8683 28.156Z" stroke="#F3652B" stroke-miterlimit="10" stroke-linecap="round" stroke-linejoin="round"/>
        <path d="M39.5123 28.156C39.5123 28.7609 39.0245 29.2585 38.4098 29.2585H35.1708C34.5659 29.2585 34.0684 28.7707 34.0684 28.156C34.0684 27.5512 34.5562 27.0536 35.1708 27.0536H38.4098C39.0245 27.0536 39.5123 27.5512 39.5123 28.156Z" stroke="#F3652B" stroke-miterlimit="10" stroke-linecap="round" stroke-linejoin="round"/>
        <path d="M24.5074 24.1951C24.0781 24.6244 23.3855 24.6244 22.9562 24.1951L20.6635 21.9025C20.2342 21.4732 20.2342 20.7805 20.6635 20.3512C21.0928 19.922 21.7855 19.922 22.2147 20.3512L24.5074 22.6439C24.9367 23.0634 24.9367 23.7659 24.5074 24.1951Z" stroke="#F3652B" stroke-miterlimit="10" stroke-linecap="round" stroke-linejoin="round"/>
        <path d="M36.2733 35.9609C35.844 36.3902 35.1513 36.3902 34.7221 35.9609L32.4294 33.6682C32.0001 33.2389 32.0001 32.5463 32.4294 32.117C32.8586 31.6877 33.5513 31.6877 33.9806 32.117L36.2733 34.4097C36.7025 34.8389 36.7025 35.5316 36.2733 35.9609Z" stroke="#F3652B" stroke-miterlimit="10" stroke-linecap="round" stroke-linejoin="round"/>
        <path d="M24.5074 32.117C24.9367 32.5463 24.9367 33.2389 24.5074 33.6682L22.2147 35.9609C21.7855 36.3902 21.0928 36.3902 20.6635 35.9609C20.2342 35.5316 20.2342 34.8389 20.6635 34.4097L22.9562 32.117C23.3855 31.6877 24.0781 31.6877 24.5074 32.117Z" stroke="#F3652B" stroke-miterlimit="10" stroke-linecap="round" stroke-linejoin="round"/>
        <path d="M36.2733 20.3415C36.7025 20.7708 36.7025 21.4634 36.2733 21.8927L33.9806 24.1854C33.5513 24.6147 32.8586 24.6147 32.4294 24.1854C32.0001 23.7561 32.0001 23.0634 32.4294 22.6342L34.7221 20.3415C35.1513 19.9122 35.844 19.9122 36.2733 20.3415Z" stroke="#F3652B" stroke-miterlimit="10" stroke-linecap="round" stroke-linejoin="round"/>
        <path d="M19.639 31.3854H3.96096C2.04877 31.3854 0.487793 29.8244 0.487793 27.9122V3.96096C0.487793 2.04877 2.04877 0.487793 3.96096 0.487793H27.9219C29.8341 0.487793 31.3951 2.04877 31.3951 3.96096V18.8488" stroke="#F3652B" stroke-miterlimit="10" stroke-linecap="round" stroke-linejoin="round"/>
        <path d="M31.3854 25.8048V27.9219C31.3854 29.8341 29.8244 31.3951 27.9122 31.3951H25.5513" stroke="#F3652B" stroke-miterlimit="10" stroke-linecap="round" stroke-linejoin="round"/>
        <path d="M0.487793 7.41467H31.3854" stroke="#F3652B" stroke-miterlimit="10" stroke-linecap="round" stroke-linejoin="round"/>
        <path d="M3.9707 11.1708H26.2049" stroke="#F3652B" stroke-miterlimit="10" stroke-linecap="round" stroke-linejoin="round"/>
        <path d="M5.70728 14.6342H28.9463" stroke="#F3652B" stroke-miterlimit="10" stroke-linecap="round" stroke-linejoin="round"/>
        <path d="M3.9707 18.2439H17.3268" stroke="#F3652B" stroke-miterlimit="10" stroke-linecap="round" stroke-linejoin="round"/>
        <path d="M5.70728 21.8536H13.3561" stroke="#F3652B" stroke-miterlimit="10" stroke-linecap="round" stroke-linejoin="round"/>
        <path d="M4.85851 5.06345C5.34883 5.06345 5.74631 4.66597 5.74631 4.17565C5.74631 3.68533 5.34883 3.28784 4.85851 3.28784C4.36819 3.28784 3.9707 3.68533 3.9707 4.17565C3.9707 4.66597 4.36819 5.06345 4.85851 5.06345Z" fill="#F3652B"/>
        <path d="M8.30236 5.06345C8.79268 5.06345 9.19016 4.66597 9.19016 4.17565C9.19016 3.68533 8.79268 3.28784 8.30236 3.28784C7.81203 3.28784 7.41455 3.68533 7.41455 4.17565C7.41455 4.66597 7.81203 5.06345 8.30236 5.06345Z" fill="#F3652B"/>
        <path d="M11.7561 5.06345C12.2464 5.06345 12.6439 4.66597 12.6439 4.17565C12.6439 3.68533 12.2464 3.28784 11.7561 3.28784C11.2658 3.28784 10.8683 3.68533 10.8683 4.17565C10.8683 4.66597 11.2658 5.06345 11.7561 5.06345Z" fill="#F3652B"/>
    </g>
    <defs>
        <clipPath id="clipChangelog">
            <rect width="40" height="39.6878" fill="white"/>
        </clipPath>
    </defs>
</svg>
