    <svg width="40" height="40" viewBox="0 0 40 40" fill="none" xmlns="http://www.w3.org/2000/svg">
    <g clip-path="url(#clipProducts)">
        <path d="M34.3163 39.5134L5.55716 39.416C2.76398 39.4063 0.476871 37.1095 0.486603 34.3163L0.583927 5.55716C0.593659 2.75424 2.8905 0.476871 5.68368 0.486603L34.4428 0.583927C37.236 0.593659 39.5231 2.8905 39.5134 5.68368L39.416 34.4428C39.4063 37.236 37.1095 39.5231 34.3163 39.5134Z" stroke="#F3652B" stroke-miterlimit="10"/>
        <path d="M4.51575 9.31396L8.57414 9.3237" stroke="#F3652B" stroke-miterlimit="10"/>
        <path d="M15.0365 9.34302L35.5523 9.41114" stroke="#F3652B" stroke-miterlimit="10"/>
        <path d="M11.8054 12.5646C13.5899 12.5646 15.0365 11.118 15.0365 9.33344C15.0365 7.54893 13.5899 6.10229 11.8054 6.10229C10.0209 6.10229 8.57422 7.54893 8.57422 9.33344C8.57422 11.118 10.0209 12.5646 11.8054 12.5646Z" stroke="#F3652B" stroke-miterlimit="10"/>
        <path d="M4.47693 19.9221L24.7689 19.9902" stroke="#F3652B" stroke-miterlimit="10"/>
        <path d="M31.2311 20.0098L35.5231 20.0195" stroke="#F3652B" stroke-miterlimit="10"/>
        <path d="M27.9999 23.2311C29.7845 23.2311 31.2311 21.7845 31.2311 19.9999C31.2311 18.2154 29.7845 16.7688 27.9999 16.7688C26.2154 16.7688 24.7688 18.2154 24.7688 19.9999C24.7688 21.7845 26.2154 23.2311 27.9999 23.2311Z" stroke="#F3652B" stroke-miterlimit="10"/>
        <path d="M20.4282 30.5791L35.747 30.6375" stroke="#F3652B" stroke-miterlimit="10"/>
        <path d="M4.44763 30.5305L13.8588 30.5597" stroke="#F3652B" stroke-miterlimit="10"/>
        <path d="M17.1484 33.8589C18.9652 33.8589 20.438 32.3861 20.438 30.5693C20.438 28.7526 18.9652 27.2798 17.1484 27.2798C15.3317 27.2798 13.8589 28.7526 13.8589 30.5693C13.8589 32.3861 15.3317 33.8589 17.1484 33.8589Z" stroke="#F3652B" stroke-miterlimit="10"/>
    </g>
    <defs>
        <clipPath id="clipProducts">
            <rect width="40" height="40" fill="white"/>
        </clipPath>
    </defs>
</svg>
