<svg width="40" height="40" viewBox="0 0 40 40" fill="none" xmlns="http://www.w3.org/2000/svg">
<g clip-path="url(#clipFirstStep)">
<path d="M21.2975 35.2H4.39023C2.24389 35.2 0.487793 33.4439 0.487793 31.2975V4.39023C0.487793 2.24389 2.24389 0.487793 4.39023 0.487793H31.3073C33.4536 0.487793 35.2097 2.24389 35.2097 4.39023V20.8097" stroke="#F3652B" stroke-miterlimit="10"/>
<path d="M0.487793 8.27319H35.2" stroke="#F3652B" stroke-miterlimit="10"/>
<path d="M4.40002 12.4878H29.3756" stroke="#F3652B" stroke-miterlimit="10" stroke-linecap="round"/>
<path d="M6.3512 16.3804H32.4585" stroke="#F3652B" stroke-miterlimit="10" stroke-linecap="round"/>
<path d="M4.40002 20.439H19.4049" stroke="#F3652B" stroke-miterlimit="10" stroke-linecap="round"/>
<path d="M6.3512 24.4878H14.9463" stroke="#F3652B" stroke-miterlimit="10" stroke-linecap="round"/>
<path d="M5.40491 5.62916C5.9545 5.62916 6.40003 5.18363 6.40003 4.63404C6.40003 4.08445 5.9545 3.63892 5.40491 3.63892C4.85532 3.63892 4.40979 4.08445 4.40979 4.63404C4.40979 5.18363 4.85532 5.62916 5.40491 5.62916Z" fill="#F3652B"/>
<path d="M9.26832 5.62916C9.81791 5.62916 10.2634 5.18363 10.2634 4.63404C10.2634 4.08445 9.81791 3.63892 9.26832 3.63892C8.71872 3.63892 8.27319 4.08445 8.27319 4.63404C8.27319 5.18363 8.71872 5.62916 9.26832 5.62916Z" fill="#F3652B"/>
<path d="M13.1415 5.62916C13.6911 5.62916 14.1366 5.18363 14.1366 4.63404C14.1366 4.08445 13.6911 3.63892 13.1415 3.63892C12.5919 3.63892 12.1464 4.08445 12.1464 4.63404C12.1464 5.18363 12.5919 5.62916 13.1415 5.62916Z" fill="#F3652B"/>
<path d="M29.3756 39.2292C34.9739 39.2292 39.5122 34.6909 39.5122 29.0926C39.5122 23.4944 34.9739 18.9561 29.3756 18.9561C23.7773 18.9561 19.239 23.4944 19.239 29.0926C19.239 34.6909 23.7773 39.2292 29.3756 39.2292Z" stroke="#F3652B" stroke-miterlimit="10" stroke-linecap="round" stroke-linejoin="round"/>
<path d="M34.1268 29.4049L27.1219 33.8049V25.0049L34.1268 29.4049Z" stroke="#F3652B" stroke-miterlimit="10" stroke-linecap="round" stroke-linejoin="round"/>
</g>
<defs>
<clipPath id="clipFirstStep">
<rect width="40" height="39.7171" fill="white"/>
</clipPath>
</defs>
</svg>
