<svg width="40" height="40" viewBox="0 0 40 40" fill="none" xmlns="http://www.w3.org/2000/svg">
    <g clip-path="url(#clipAgreements)">
        <path d="M30.3805 37.1561H4.27316C2.19511 37.1561 0.487793 35.4585 0.487793 33.3707V7.27316C0.487793 5.19511 2.18535 3.48779 4.27316 3.48779H30.3805C32.4585 3.48779 34.1658 5.18535 34.1658 7.27316V33.3805C34.1561 35.4585 32.4585 37.1561 30.3805 37.1561Z" stroke="#F3652B" stroke-miterlimit="10" stroke-linecap="round" stroke-linejoin="round"/>
        <path d="M12.2244 11.0391H34.1561" stroke="#F3652B" stroke-miterlimit="10" stroke-linecap="round" stroke-linejoin="round"/>
        <path d="M8.00977 11.0391H10.6829" stroke="#F3652B" stroke-miterlimit="10" stroke-linecap="round" stroke-linejoin="round"/>
        <path d="M5.57068 11.0391H6.31214" stroke="#F3652B" stroke-miterlimit="10" stroke-linecap="round" stroke-linejoin="round"/>
        <path d="M0.487793 11.0391H3.66828" stroke="#F3652B" stroke-miterlimit="10" stroke-linecap="round" stroke-linejoin="round"/>
        <path d="M5.24881 8.47321C5.78224 8.47321 6.21467 8.04078 6.21467 7.50736C6.21467 6.97393 5.78224 6.5415 5.24881 6.5415C4.71539 6.5415 4.28296 6.97393 4.28296 7.50736C4.28296 8.04078 4.71539 8.47321 5.24881 8.47321Z" fill="#F3652B"/>
        <path d="M9.00492 8.47321C9.53834 8.47321 9.97077 8.04078 9.97077 7.50736C9.97077 6.97393 9.53834 6.5415 9.00492 6.5415C8.47149 6.5415 8.03906 6.97393 8.03906 7.50736C8.03906 8.04078 8.47149 8.47321 9.00492 8.47321Z" fill="#F3652B"/>
        <path d="M12.761 8.47321C13.2944 8.47321 13.7269 8.04078 13.7269 7.50736C13.7269 6.97393 13.2944 6.5415 12.761 6.5415C12.2276 6.5415 11.7952 6.97393 11.7952 7.50736C11.7952 8.04078 12.2276 8.47321 12.761 8.47321Z" fill="#F3652B"/>
        <path d="M39.5122 7.27319H34.1561V16.7659H39.5122V7.27319Z" stroke="#F3652B" stroke-miterlimit="10" stroke-linecap="round" stroke-linejoin="round"/>
        <path d="M38.1854 16.8341H34.1561V24.0341H38.1854V16.8341Z" stroke="#F3652B" stroke-miterlimit="10" stroke-linecap="round" stroke-linejoin="round"/>
        <path d="M21.3951 19.283L26.5366 22.6488L21.3951 26.0049" stroke="#F3652B" stroke-miterlimit="10" stroke-linecap="round" stroke-linejoin="round"/>
        <path d="M18.6341 19.1757L15.8341 26.5025" stroke="#F3652B" stroke-miterlimit="10" stroke-linecap="round" stroke-linejoin="round"/>
        <path d="M13.2488 19.283L8.1073 22.6488L13.2488 26.0049" stroke="#F3652B" stroke-miterlimit="10" stroke-linecap="round" stroke-linejoin="round"/>
    </g>
    <defs>
        <clipPath id="clipAgreements">
            <rect width="40" height="34.6439" fill="white" transform="translate(0 3)"/>
        </clipPath>
    </defs>
</svg>
