<svg width="40" height="40" viewBox="0 0 40 40" fill="none" xmlns="http://www.w3.org/2000/svg">
    <g clip-path="url(#clipStatus)">
        <path d="M9.48779 8.9073V3.59023C9.48779 1.88291 10.8829 0.487793 12.5902 0.487793H25.9463C27.6536 0.487793 29.0488 1.88291 29.0488 3.59023" stroke="#F3652B" stroke-miterlimit="10" stroke-linecap="round" stroke-linejoin="round"/>
        <path d="M9.48779 14.3318V12.8" stroke="#F3652B" stroke-miterlimit="10" stroke-linecap="round" stroke-linejoin="round"/>
        <path d="M29.0488 31.2292V36.4097C29.0488 38.117 27.6536 39.5122 25.9463 39.5122H12.5902C10.8829 39.5122 9.48779 38.117 9.48779 36.4097V16.4585" stroke="#F3652B" stroke-miterlimit="10" stroke-linecap="round" stroke-linejoin="round"/>
        <path d="M22.5609 0.487793H15.5756V2.43901H22.5609V0.487793Z" stroke="#F3652B" stroke-miterlimit="10" stroke-linecap="round" stroke-linejoin="round"/>
        <path d="M9.48779 35.6097H29.0488" stroke="#F3652B" stroke-miterlimit="10" stroke-linecap="round" stroke-linejoin="round"/>
        <path d="M17.3024 37.5609H21.2341" stroke="#F3652B" stroke-miterlimit="10" stroke-linecap="round" stroke-linejoin="round"/>
        <path d="M26.5804 24.5658C31.9686 24.5658 36.3365 20.1978 36.3365 14.8097C36.3365 9.42154 31.9686 5.05359 26.5804 5.05359C21.1923 5.05359 16.8243 9.42154 16.8243 14.8097C16.8243 20.1978 21.1923 24.5658 26.5804 24.5658Z" stroke="#F3652B" stroke-miterlimit="10" stroke-linecap="round" stroke-linejoin="round" stroke-dasharray="2 2"/>
        <path d="M21.2634 14.8098L25.2049 18.7122L33.0781 10.9073" stroke="#F3652B" stroke-miterlimit="10" stroke-linecap="round" stroke-linejoin="round"/>
        <path d="M29.0488 26.1073V29.7658" stroke="#F3652B" stroke-miterlimit="10" stroke-linecap="round" stroke-linejoin="round"/>
    </g>
    <defs>
        <clipPath id="clipStatus">
            <rect width="27.8244" height="40" fill="white" transform="translate(9)"/>
        </clipPath>
    </defs>
</svg>
