<svg width="40" height="40" viewBox="0 0 40 40" fill="none" xmlns="http://www.w3.org/2000/svg">
    <g clip-path="url(#clipHowTo)">
        <path d="M34.5805 28.6342V33.0537C34.5805 34.0585 34.1707 34.9659 33.5073 35.6293" stroke="#F3652B" stroke-miterlimit="10" stroke-linecap="round" stroke-linejoin="round"/>
        <path d="M10.4341 6.37073H24.4243" stroke="#F3652B" stroke-miterlimit="10" stroke-linecap="round" stroke-linejoin="round"/>
        <path d="M10.4341 10.0293H27.3414" stroke="#F3652B" stroke-miterlimit="10" stroke-linecap="round" stroke-linejoin="round"/>
        <path d="M10.4341 13.8341H23.6731" stroke="#F3652B" stroke-miterlimit="10" stroke-linecap="round" stroke-linejoin="round"/>
        <path d="M10.4341 17.6488H18.5121" stroke="#F3652B" stroke-miterlimit="10" stroke-linecap="round" stroke-linejoin="round"/>
        <path d="M26.161 37.3658C26.2586 37.7268 26.4147 38.0585 26.6488 38.3512" stroke="#F3652B" stroke-miterlimit="10" stroke-linecap="round" stroke-linejoin="round"/>
        <path d="M27.322 38.9658C27.8586 39.3268 28.5025 39.5122 29.244 39.5122C30.1415 39.5122 30.8927 39.239 31.4976 38.7024C32.1123 38.1561 32.4147 37.4536 32.4147 36.6146C32.4147 35.7756 32.1025 35.0731 31.4976 34.5268C30.8927 33.9902 30.1318 33.717 29.244 33.717C28.6001 33.717 28.0245 33.8536 27.5269 34.1366C27.3318 34.2439 27.1562 34.3707 26.9903 34.5268C26.9025 34.6048 26.8147 34.6927 26.7366 34.7805C26.2879 35.278 26.0635 35.9024 26.0635 36.6146" stroke="#F3652B" stroke-miterlimit="10" stroke-linecap="round" stroke-linejoin="round"/>
        <path d="M26.8537 29.6195C26.8244 29.7951 26.8342 29.8146 26.8049 30" stroke="#F3652B" stroke-miterlimit="10" stroke-linecap="round" stroke-linejoin="round"/>
        <path d="M24.6293 16.8781C24.3561 17.0537 24.0927 17.2585 23.8488 17.4732C22.5025 18.6829 21.8098 20.3902 21.7903 22.5463C21.7903 22.6146 21.8098 22.6732 21.8586 22.722C21.9074 22.7707 21.9659 22.7902 22.0244 22.7902H27.3317C27.4586 22.7902 27.5659 22.6829 27.5756 22.5561C27.5952 21.8342 27.7805 21.2488 28.1317 20.839C28.4732 20.4293 28.9122 20.2342 29.4683 20.2342C30.6976 20.2342 31.2732 20.9073 31.2732 22.3707C31.2732 22.9756 31.0878 23.5122 30.7171 24.0098C30.3269 24.5268 29.7415 25.122 28.9903 25.7561C28.1903 26.4293 27.5952 27.239 27.2439 28.1561C27.1561 28.3902 27.0781 28.6439 27.0098 28.9171" stroke="#F3652B" stroke-miterlimit="10" stroke-linecap="round" stroke-linejoin="round"/>
        <path d="M26.7171 31.5903C26.7171 31.6683 26.7171 31.7561 26.7171 31.8439C26.7171 31.9805 26.8244 32.0878 26.961 32.0878H31.4488C31.5756 32.0878 31.6829 31.9805 31.6927 31.8537C31.7122 31.0927 31.8195 30.4488 32.0049 29.961C32.1902 29.4829 32.5317 28.9951 33.0098 28.5366L34.8244 26.8488C35.6049 26.0878 36.1805 25.3366 36.5415 24.5951C36.9024 23.8537 37.0878 23.0244 37.0878 22.1171C37.0878 20.0586 36.4146 18.4488 35.078 17.3269C33.761 16.2147 31.878 15.6488 29.4976 15.6488C28.0634 15.6488 26.8146 15.8634 25.7512 16.3025" stroke="#F3652B" stroke-miterlimit="10" stroke-linecap="round" stroke-linejoin="round"/>
        <path d="M26.8341 0.487793L34.5804 8.1756" stroke="#F3652B" stroke-miterlimit="10" stroke-linecap="round" stroke-linejoin="round"/>
        <path d="M34.5805 15.6585L34.6 8.16584H30.7463C28.5902 8.16584 26.8244 6.21462 26.8244 3.83413V0.487793H9.13657C7.12682 0.487793 5.48779 2.12682 5.48779 4.13657V33.0634C5.48779 35.0634 7.12682 36.7122 9.13657 36.7122H25" stroke="#F3652B" stroke-miterlimit="10" stroke-linecap="round" stroke-linejoin="round"/>
    </g>
    <defs>
        <clipPath id="clipHowTo">
            <rect width="32.5561" height="40" fill="white" transform="translate(5)"/>
        </clipPath>
    </defs>
</svg>
