<svg width="40" height="40" viewBox="0 0 40 40" fill="none" xmlns="http://www.w3.org/2000/svg">
    <g clip-path="url(#clipAPI)">
        <path d="M12.7708 25.3562C12.6927 25.5708 12.5366 25.6489 12.361 25.6489C12.283 25.6489 12.2244 25.6391 12.1464 25.6196C11.9317 25.5708 11.7756 25.3854 11.7756 25.1903C11.7756 25.122 11.7854 25.0732 11.8049 25.0147L14.6732 17.8245C14.8098 17.4635 15.0732 17.3269 15.3951 17.3269C15.7366 17.3269 16.0098 17.4635 16.1464 17.8245L19.0147 25.0342C19.0439 25.1025 19.0537 25.1513 19.0537 25.2098C19.0537 25.4245 18.8878 25.5806 18.6732 25.6293C18.6049 25.6489 18.5464 25.6586 18.4878 25.6586C18.3025 25.6586 18.1269 25.5611 18.0586 25.3659L17.2293 23.1903H13.5903L12.7708 25.3562ZM16.9073 22.3025L15.7366 19.2391C15.6195 18.9367 15.5025 18.5952 15.4147 18.2342C15.3171 18.5952 15.2098 18.9269 15.0927 19.2489L13.9025 22.3025H16.9073Z" fill="#F3652B"/>
        <path d="M21.3269 25.2099C21.3269 25.5026 21.1123 25.6489 20.8293 25.6489C20.5367 25.6489 20.3318 25.5026 20.3318 25.2001V18.527C20.3318 17.7172 20.6537 17.3855 21.405 17.3855H23.7464C25.405 17.3855 26.3415 18.2343 26.3415 19.7367C26.3415 21.3172 25.3757 22.2343 23.6976 22.2343H21.3172V25.2099H21.3269ZM23.6879 21.3465C24.7513 21.3465 25.3172 20.7806 25.3172 19.7562C25.3172 18.8099 24.7415 18.2831 23.6879 18.2831H21.6684C21.4342 18.2831 21.3269 18.4196 21.3269 18.6538V21.3465H23.6879Z" fill="#F3652B"/>
        <path d="M27.6976 17.7562C27.6976 17.4635 27.9123 17.3269 28.1952 17.3269C28.4879 17.3269 28.7123 17.4635 28.7123 17.7562V25.2196C28.7123 25.5025 28.4879 25.6489 28.1952 25.6489C27.9123 25.6489 27.6976 25.5025 27.6976 25.2196V17.7562Z" fill="#F3652B"/>
        <path d="M16.2927 33.639V28.7414H33.0732C36.0878 28.7414 38.5952 26.3414 39.0342 23.2195C39.0635 23.0049 39.083 22.7902 39.0927 22.5658C39.1025 22.4585 39.1025 22.3414 39.1025 22.2341" stroke="#F3652B" stroke-miterlimit="10" stroke-linecap="round" stroke-linejoin="round"/>
        <path d="M37.0342 17.3269C38.0391 18.2732 38.7513 19.5708 39.0049 21.044" stroke="#F3652B" stroke-miterlimit="10" stroke-linecap="round" stroke-linejoin="round"/>
        <path d="M9.59999 28.7317H5.11218C2.55609 28.7317 0.487793 26.4975 0.487793 23.7366C0.487793 21.5024 1.84389 19.6195 3.71706 18.9756C3.68779 18.6927 3.65852 18.4 3.65852 18.1073C3.65852 14.3414 6.47804 11.2975 9.96096 11.2975C11.6195 11.2975 13.0439 11.8829 14.0878 12.6536C14.3317 8.36095 19.2195 4.47803 24.0585 4.47803C27.3268 4.47803 30.2341 6.17559 32.0683 8.79022" stroke="#F3652B" stroke-miterlimit="10" stroke-linecap="round" stroke-linejoin="round"/>
        <path d="M12.7122 28.7317H10.5853" stroke="#F3652B" stroke-miterlimit="10" stroke-linecap="round" stroke-linejoin="round"/>
        <path d="M14.4195 28.7317H13.7366" stroke="#F3652B" stroke-miterlimit="10" stroke-linecap="round" stroke-linejoin="round"/>
        <path d="M16.2926 35.6097C16.8368 35.6097 17.278 35.1685 17.278 34.6243C17.278 34.0801 16.8368 33.6389 16.2926 33.6389C15.7484 33.6389 15.3073 34.0801 15.3073 34.6243C15.3073 35.1685 15.7484 35.6097 16.2926 35.6097Z" stroke="#F3652B" stroke-miterlimit="10" stroke-linecap="round" stroke-linejoin="round"/>
        <path d="M5.76583 19.5609C5.73656 19.3463 5.72681 19.1219 5.72681 18.8975C5.72681 16.7316 6.94632 14.8682 8.6829 14.078C9.25851 13.8146 9.90242 13.6682 10.5658 13.6682" stroke="#F3652B" stroke-miterlimit="10" stroke-linecap="round" stroke-linejoin="round"/>
        <path d="M18.6146 8.96593C20.078 7.81472 21.9317 7.08301 23.7756 7.08301C25.2878 7.08301 26.7024 7.5513 27.9122 8.37081" stroke="#F3652B" stroke-miterlimit="10" stroke-linecap="round" stroke-linejoin="round"/>
        <path d="M16.2927 11.8439C16.5074 11.3854 16.7805 10.9366 17.0927 10.5171" stroke="#F3652B" stroke-miterlimit="10" stroke-linecap="round" stroke-linejoin="round"/>
        <path fill-rule="evenodd" clip-rule="evenodd" d="M37.8731 15.3463C38.0878 14.9755 38.2536 14.5755 38.3609 14.1658L38.3999 14.0194H39.5024V12.0194H38.3999L38.3609 11.8731C38.2536 11.4536 38.0878 11.0633 37.8731 10.6926L37.7951 10.556L38.5756 9.77553L37.1609 8.36089L36.3804 9.14138L36.2439 9.06333C35.8731 8.8487 35.4731 8.68284 35.0634 8.57553L34.917 8.5365V7.41455H32.917V8.51699L32.7707 8.55601C32.3512 8.66333 31.9609 8.82918 31.5902 9.04382L31.4536 9.12187L30.6731 8.34138L29.2585 9.75601L30.039 10.5365L29.9512 10.6828C29.7365 11.0536 29.5707 11.4536 29.4634 11.8633L29.4243 12.0097H28.3219V14.0097H29.4243L29.4634 14.156C29.5707 14.5755 29.7365 14.9658 29.9512 15.3365L30.0292 15.4731L29.2487 16.2536L30.6634 17.6682L31.4438 16.8877L31.5804 16.9658C31.9512 17.1804 32.3512 17.3463 32.7609 17.4536L32.9073 17.4926V18.595H34.9073V17.4926L35.0536 17.4536C35.4731 17.3463 35.8634 17.1804 36.2341 16.9658L36.3707 16.8877L37.1512 17.6682L38.5658 16.2536L37.7853 15.4731L37.8731 15.3463Z" stroke="#F3652B" stroke-miterlimit="10" stroke-linecap="round" stroke-linejoin="round"/>
        <path d="M33.9122 16.0292C35.5179 16.0292 36.8195 14.7276 36.8195 13.1219C36.8195 11.5163 35.5179 10.2146 33.9122 10.2146C32.3065 10.2146 31.0049 11.5163 31.0049 13.1219C31.0049 14.7276 32.3065 16.0292 33.9122 16.0292Z" stroke="#F3652B" stroke-miterlimit="10" stroke-linecap="round" stroke-linejoin="round"/>
    </g>
    <defs>
        <clipPath id="clipAPI">
            <rect width="40" height="32.0976" fill="white" transform="translate(0 4)"/>
        </clipPath>
    </defs>
</svg>
