<svg width="40" height="40" viewBox="0 0 40 40" fill="none" xmlns="http://www.w3.org/2000/svg">
    <g clip-path="url(#clipUseCase)">
        <path d="M8.85852 0.487741H10.2341C10.2341 0.487741 11.1707 0.409692 11.4927 1.68774C11.961 3.5414 14 11.6097 14 11.6097C14 11.6097 14.0878 12.6829 16.4293 12.6829C18.6634 12.6829 23.161 12.6829 23.161 12.6829" stroke="#F3652B" stroke-miterlimit="10"/>
        <path d="M16.3318 16.7023C17.043 16.7023 17.6196 16.1257 17.6196 15.4145C17.6196 14.7033 17.043 14.1267 16.3318 14.1267C15.6205 14.1267 15.0439 14.7033 15.0439 15.4145C15.0439 16.1257 15.6205 16.7023 16.3318 16.7023Z" stroke="#F3652B" stroke-miterlimit="10"/>
        <path d="M20.7512 16.7023C21.4624 16.7023 22.039 16.1257 22.039 15.4145C22.039 14.7033 21.4624 14.1267 20.7512 14.1267C20.0399 14.1267 19.4634 14.7033 19.4634 15.4145C19.4634 16.1257 20.0399 16.7023 20.7512 16.7023Z" stroke="#F3652B" stroke-miterlimit="10"/>
        <path d="M23.0829 9.873H14.2341C13.7268 9.873 13.4536 9.43398 13.3171 8.9169L11.9805 3.53154C11.9805 3.00471 12.3902 2.57544 12.8975 2.57544H24.4585C24.9658 2.57544 25.3756 3.00471 25.3756 3.53154L24.0097 8.9169C23.9024 9.35593 23.5902 9.873 23.0829 9.873Z" stroke="#F3652B" stroke-miterlimit="10"/>
        <path d="M9.83414 30.4486C10.2536 29.5315 10.4 28.4681 10.1658 27.3559C9.76584 25.473 8.23414 23.9706 6.35121 23.6096C3.2195 23.0145 0.487793 25.3949 0.487793 28.4096C0.487793 29.1413 0.643891 29.8242 0.936573 30.4486L0.965842 30.5071C0.975598 30.5169 0.975598 30.5267 0.985354 30.5364L3.81462 36.6145C4.05853 37.2486 4.67316 37.6876 5.39511 37.6876C6.11706 37.6876 6.72194 37.2388 6.9756 36.6145L9.80487 30.5364C9.81462 30.5267 9.81462 30.5169 9.82438 30.5071L9.83414 30.4486Z" stroke="#F3652B" stroke-miterlimit="10"/>
        <path d="M5.3854 30.5364C6.54385 30.5364 7.48296 29.5973 7.48296 28.4389C7.48296 27.2804 6.54385 26.3413 5.3854 26.3413C4.22695 26.3413 3.28784 27.2804 3.28784 28.4389C3.28784 29.5973 4.22695 30.5364 5.3854 30.5364Z" stroke="#F3652B" stroke-miterlimit="10"/>
        <path d="M36.1853 36.7608C34.9268 37.5023 33.4048 37.8437 31.7951 37.6194C28.9366 37.2194 26.6048 34.9462 26.1366 32.1072C25.3756 27.4925 29.3073 23.5608 33.9219 24.312C36.839 24.7901 39.1317 27.2194 39.4731 30.1559C39.6683 31.8535 39.2292 33.4437 38.3707 34.7218" stroke="#F3652B" stroke-miterlimit="10" stroke-linecap="round"/>
        <path d="M34.5853 27.5706L31.0829 33.9901" stroke="#F3652B" stroke-miterlimit="10" stroke-linecap="round"/>
        <path d="M30.4683 29.8438C30.9963 29.8438 31.4244 29.4158 31.4244 28.8877C31.4244 28.3597 30.9963 27.9316 30.4683 27.9316C29.9403 27.9316 29.5122 28.3597 29.5122 28.8877C29.5122 29.4158 29.9403 29.8438 30.4683 29.8438Z" stroke="#F3652B" stroke-miterlimit="10" stroke-linecap="round"/>
        <path d="M35.0341 33.7266C35.5621 33.7266 35.9902 33.2986 35.9902 32.7705C35.9902 32.2425 35.5621 31.8145 35.0341 31.8145C34.5061 31.8145 34.078 32.2425 34.078 32.7705C34.078 33.2986 34.5061 33.7266 35.0341 33.7266Z" stroke="#F3652B" stroke-miterlimit="10" stroke-linecap="round"/>
        <path d="M26.9366 36.6146C24.5366 37.9999 21.7463 38.7999 18.7805 38.7999C15.0439 38.7999 11.6097 37.5414 8.85852 35.4341" stroke="#F3652B" stroke-miterlimit="10" stroke-linecap="round" stroke-linejoin="round" stroke-dasharray="2 2"/>
        <path d="M26.0391 7.90234C31.3952 10.5755 35.0732 16.1072 35.0732 22.4975" stroke="#F3652B" stroke-miterlimit="10" stroke-linecap="round" stroke-linejoin="round" stroke-dasharray="2 2"/>
        <path d="M2.54639 21.1316C2.98541 15.8242 5.97078 11.2291 10.283 8.59497" stroke="#F3652B" stroke-miterlimit="10" stroke-linecap="round" stroke-linejoin="round" stroke-dasharray="2 2"/>
    </g>
    <defs>
        <clipPath id="clipUseCase">
            <rect width="40" height="39.2878" fill="white"/>
        </clipPath>
    </defs>
</svg>
