<svg width="48" height="48" viewBox="0 0 48 48" fill="none" xmlns="http://www.w3.org/2000/svg">
<path fill-rule="evenodd" clip-rule="evenodd" d="M22.1055 13.6245C20.6475 14.8064 19.6807 16.3765 19.5859 17.9778C19.5767 18.134 19.4825 18.2726 19.3406 18.3387C19.1988 18.4048 19.0321 18.3878 18.9065 18.2944C18.1199 17.7094 17.0363 17.2659 15.7801 17.2659C13.1975 17.2659 11.0473 19.5404 11.0473 22.414C11.0473 22.6348 11.0664 22.8504 11.0924 23.0793C11.115 23.2781 10.9962 23.4658 10.8068 23.5305C9.46273 23.9895 8.45454 25.3682 8.45454 27.0244C8.45454 29.0786 9.98768 30.6871 11.8085 30.6871H15.4872C15.6729 30.6871 15.8309 30.8059 15.8892 30.9717C15.9475 30.8059 16.1055 30.6871 16.2911 30.6871H18.0374C18.2442 30.6871 18.4167 30.8346 18.4553 31.0301C18.4939 30.8346 18.6663 30.6871 18.8732 30.6871H19.4322C19.6675 30.6871 19.8582 30.8778 19.8582 31.1131C19.8582 31.3484 19.6675 31.5391 19.4322 31.5391H18.8732C18.6663 31.5391 18.4939 31.3916 18.4553 31.1961C18.4167 31.3916 18.2442 31.5391 18.0374 31.5391H16.2911C16.1055 31.5391 15.9475 31.4203 15.8892 31.2546C15.8309 31.4203 15.6729 31.5391 15.4872 31.5391H11.8085C9.45536 31.5391 7.60254 29.4849 7.60254 27.0244C7.60254 25.1544 8.67097 23.5268 10.2136 22.8482C10.2025 22.7081 10.1953 22.5635 10.1953 22.414C10.1953 19.1332 12.6661 16.4139 15.7801 16.4139C16.9467 16.4139 17.9854 16.7431 18.8237 17.2238C19.1374 15.5874 20.1812 14.0875 21.569 12.9626C23.1566 11.6758 25.2403 10.8398 27.3328 10.8398C30.0472 10.8398 32.4611 12.1907 34.0368 14.2825C34.0734 14.27 34.1102 14.258 34.1472 14.2466V13.6669C34.1472 13.4316 34.3379 13.2409 34.5732 13.2409H36.2076C36.4429 13.2409 36.6336 13.4316 36.6336 13.6669V14.2485C36.8761 14.3247 37.1117 14.422 37.3386 14.5421L37.7538 14.127C37.8337 14.0471 37.942 14.0022 38.055 14.0022C38.168 14.0022 38.2763 14.0471 38.3562 14.127L39.5115 15.2823C39.6779 15.4486 39.6779 15.7183 39.5115 15.8847L39.0966 16.2996C39.2165 16.5242 39.3162 16.7598 39.3919 17.0048H39.9716C40.2069 17.0048 40.3976 17.1956 40.3976 17.4308V19.0653C40.3976 19.3005 40.2069 19.4913 39.9716 19.4913H39.39C39.3133 19.7349 39.2155 19.9718 39.0945 20.1997L39.5062 20.6114C39.6725 20.7778 39.6725 21.0475 39.5062 21.2139L38.7276 21.9924C39.3568 22.7598 39.7939 23.707 39.971 24.749C40.0104 24.9809 39.8543 25.2009 39.6224 25.2403C39.3904 25.2797 39.1704 25.1237 39.131 24.8917C38.9754 23.9757 38.5877 23.1517 38.0365 22.4937C37.9319 22.4905 37.8283 22.449 37.7484 22.3691L37.3335 21.9542C37.1089 22.0741 36.8733 22.1738 36.6283 22.2496V22.8292C36.6283 23.0645 36.4376 23.2552 36.2023 23.2552H34.5679C34.3326 23.2552 34.1419 23.0645 34.1419 22.8292V22.2477C33.8995 22.1714 33.6638 22.0741 33.4369 21.954L33.0217 22.3691C32.9419 22.449 32.8335 22.4939 32.7205 22.4939C32.6075 22.4939 32.4992 22.449 32.4193 22.3691L31.264 21.2139C31.1841 21.134 31.1392 21.0256 31.1392 20.9126C31.1392 20.7997 31.1841 20.6913 31.264 20.6114L31.6792 20.1962C31.559 19.9694 31.4618 19.7337 31.3855 19.4913H30.8039C30.5687 19.4913 30.3779 19.3005 30.3779 19.0653V17.4308C30.3779 17.1956 30.5687 17.0048 30.8039 17.0048H31.3855C31.4626 16.7599 31.561 16.5219 31.6829 16.2929L31.2747 15.8847C31.1948 15.8048 31.1499 15.6965 31.1499 15.5835C31.1499 15.4705 31.1948 15.3621 31.2747 15.2823L32.4299 14.127C32.4977 14.0592 32.5859 14.0167 32.68 14.0053C31.2824 12.5679 29.3977 11.6918 27.3328 11.6918C25.459 11.6918 23.5605 12.4451 22.1055 13.6245ZM34.0221 15.2048C33.9126 15.255 33.8051 15.3117 33.7001 15.3744L33.6932 15.3784L33.5814 15.4423C33.414 15.5379 33.2033 15.5092 33.0675 15.3724L32.7299 15.0319L32.1783 15.5835L32.5213 15.9264C32.6649 16.07 32.6872 16.295 32.5745 16.464L32.5061 16.5666C32.3496 16.8309 32.2331 17.1153 32.1529 17.4168C32.1528 17.4171 32.153 17.4165 32.1529 17.4168L32.1212 17.5384C32.0723 17.726 31.9028 17.8568 31.709 17.8568H31.2299V18.6393H31.709C31.9028 18.6393 32.0723 18.7702 32.1212 18.9577L32.1526 19.0784C32.1527 19.0787 32.1526 19.078 32.1526 19.0784C32.2337 19.3832 32.3522 19.6716 32.5114 19.9384L32.5155 19.9453L32.5793 20.0571C32.6746 20.2239 32.6465 20.4338 32.5107 20.5697L32.1677 20.9126L32.7205 21.4655L33.0635 21.1225C33.1993 20.9867 33.4093 20.9585 33.576 21.0539L33.6948 21.1217C33.9617 21.2809 34.2491 21.3992 34.5541 21.4803C34.5543 21.4804 34.5538 21.4802 34.5541 21.4803L34.6754 21.512C34.863 21.5609 34.9939 21.7303 34.9939 21.9242V22.4032H35.7763V21.9242C35.7763 21.7303 35.9072 21.5609 36.0948 21.512L36.2214 21.4789C36.5185 21.4047 36.8048 21.2832 37.0755 21.1218L37.0823 21.1177L37.1941 21.0539C37.3609 20.9585 37.5709 20.9867 37.7067 21.1225L38.0497 21.4655L38.6025 20.9126L38.2595 20.5697C38.1198 20.4299 38.0945 20.2123 38.1986 20.0442L38.2659 19.9355C38.4242 19.6695 38.5418 19.383 38.6226 19.0793C38.6227 19.079 38.6225 19.0797 38.6226 19.0793L38.6543 18.9577C38.7033 18.7702 38.8727 18.6393 39.0665 18.6393H39.5456V17.8568H39.0665C38.8727 17.8568 38.7033 17.726 38.6543 17.5384L38.6213 17.4117C38.547 17.1147 38.4256 16.8284 38.2641 16.5577L38.26 16.5509L38.1962 16.439C38.1009 16.2722 38.129 16.0623 38.2649 15.9264L38.6078 15.5835L38.055 15.0307L37.712 15.3736C37.5762 15.5095 37.3662 15.5376 37.1995 15.4423L37.0807 15.3744C36.8139 15.2152 36.5265 15.0969 36.2216 15.0159C36.2213 15.0158 36.2219 15.0159 36.2216 15.0159L36.1001 14.9842C35.9125 14.9352 35.7816 14.7658 35.7816 14.5719V14.0929H34.9992V14.5719C34.9992 14.7658 34.8683 14.9352 34.6807 14.9842L34.5541 15.0172C34.3976 15.0563 34.244 15.1085 34.0941 15.1729C34.0708 15.1859 34.0467 15.1965 34.0221 15.2048ZM27.0932 13.8161C25.69 13.8161 24.2637 14.3715 23.1304 15.2681C22.9459 15.414 22.678 15.3828 22.532 15.1983C22.386 15.0138 22.4173 14.7459 22.6018 14.5999C23.8642 13.6012 25.4725 12.9641 27.0932 12.9641C28.4242 12.9641 29.6615 13.376 30.7225 14.0909C30.9177 14.2224 30.9693 14.4871 30.8378 14.6822C30.7063 14.8773 30.4416 14.9289 30.2465 14.7975C29.3164 14.1708 28.2432 13.8161 27.0932 13.8161ZM35.3878 16.3768C34.3058 16.3768 33.4287 17.2539 33.4287 18.3359C33.4287 19.4179 34.3058 20.295 35.3878 20.295C36.4697 20.295 37.3468 19.4179 37.3468 18.3359C37.3468 17.2539 36.4697 16.3768 35.3878 16.3768ZM32.5767 18.3359C32.5767 16.7834 33.8352 15.5248 35.3878 15.5248C36.9403 15.5248 38.1988 16.7834 38.1988 18.3359C38.1988 19.8884 36.9403 21.147 35.3878 21.147C33.8352 21.147 32.5767 19.8884 32.5767 18.3359ZM21.8793 15.8628C22.0661 16.0058 22.1016 16.2732 21.9585 16.46C21.7177 16.7746 21.5152 17.1151 21.3518 17.4667C21.2526 17.68 20.9993 17.7726 20.7859 17.6734C20.5726 17.5742 20.48 17.3209 20.5792 17.1075C20.7671 16.7031 21.0012 16.3089 21.2821 15.9421C21.4251 15.7553 21.6925 15.7198 21.8793 15.8628ZM16.2805 19.1985C15.7936 19.1985 15.3327 19.3023 14.9148 19.4948L14.9131 19.4956C13.6462 20.0723 12.7402 21.438 12.7402 23.0528C12.7402 23.2154 12.7542 23.3778 12.7746 23.5514C12.8021 23.7851 12.6349 23.9968 12.4013 24.0243C12.1676 24.0518 11.9559 23.8846 11.9284 23.651C11.9062 23.4625 11.8882 23.2629 11.8882 23.0528C11.8882 21.1223 12.973 19.443 14.5593 18.7205C15.0888 18.4767 15.6711 18.3465 16.2805 18.3465C16.5158 18.3465 16.7065 18.5372 16.7065 18.7725C16.7065 19.0077 16.5158 19.1985 16.2805 19.1985ZM30.8039 21.7005C31.0392 21.7005 31.2299 21.8912 31.2299 22.1265V28.2382C31.2299 28.4735 31.0392 28.6642 30.8039 28.6642C30.5687 28.6642 30.3779 28.4735 30.3779 28.2382V22.1265C30.3779 21.8912 30.5687 21.7005 30.8039 21.7005ZM20.2347 21.7677C20.4059 21.7663 20.5613 21.8676 20.6292 22.0248L23.3305 28.2804C23.4238 28.4964 23.3243 28.7471 23.1083 28.8403C22.8923 28.9336 22.6416 28.8341 22.5483 28.6181L21.6848 26.6185H18.872L18.049 28.6118C17.9592 28.8293 17.7101 28.9328 17.4927 28.843C17.2752 28.7532 17.1717 28.5041 17.2615 28.2867L19.8444 22.0311C19.9097 21.8728 20.0635 21.7691 20.2347 21.7677ZM19.2238 25.7665H21.3169L20.2469 23.2886L19.2238 25.7665ZM24.3617 22.3358C24.3617 22.1005 24.5524 21.9098 24.7877 21.9098H26.9914C28.1427 21.9098 29.0761 22.8431 29.0761 23.9945C29.0761 25.1459 28.1427 26.0792 26.9914 26.0792H25.2137V28.4968C25.2137 28.7321 25.023 28.9228 24.7877 28.9228C24.5524 28.9228 24.3617 28.7321 24.3617 28.4968V22.3358ZM25.2137 25.2272H26.9914C27.6722 25.2272 28.2241 24.6753 28.2241 23.9945C28.2241 23.3137 27.6722 22.7618 26.9914 22.7618H25.2137V25.2272ZM39.6309 25.3633C39.8661 25.3633 40.0569 25.554 40.0569 25.7893V25.7944C40.0569 25.8798 40.0569 25.9786 40.0512 26.0794C40.0452 26.2748 40.0278 26.4649 39.9991 26.6549C39.6107 29.3958 37.4108 31.5444 34.701 31.5444H21.3915V34.7771C21.8608 34.9504 22.1954 35.4017 22.1954 35.9312C22.1954 36.6105 21.6447 37.1611 20.9655 37.1611C20.2862 37.1611 19.7356 36.6105 19.7356 35.9312C19.7356 35.4017 20.0702 34.9504 20.5395 34.7771V31.1184C20.5395 30.8832 20.7302 30.6924 20.9655 30.6924H34.701C36.931 30.6924 38.8194 28.9131 39.1558 26.5335L39.1564 26.5294C39.1805 26.3706 39.1949 26.212 39.1997 26.0483L39.2001 26.0358C39.2045 25.9598 39.2049 25.8819 39.2049 25.7893C39.2049 25.554 39.3956 25.3633 39.6309 25.3633ZM20.9655 35.5533C20.7568 35.5533 20.5876 35.7225 20.5876 35.9312C20.5876 36.1399 20.7568 36.3091 20.9655 36.3091C21.1742 36.3091 21.3434 36.1399 21.3434 35.9312C21.3434 35.7225 21.1742 35.5533 20.9655 35.5533Z" fill="#F3652B"/>
</svg>
