<svg width="48" height="48" viewBox="0 0 48 48" fill="none" xmlns="http://www.w3.org/2000/svg">
<path fill-rule="evenodd" clip-rule="evenodd" d="M6.53664 11.2389C7.15611 19.0396 8.27335 25.4469 10.8305 30.6229C13.4047 35.8333 17.4523 39.8231 24 42.7128C30.5478 39.8231 34.5953 35.8333 37.1695 30.6229C39.7266 25.4472 40.8438 19.0402 41.4633 11.24C36.1334 11.1588 31.9211 9.67986 28.937 8.20171C27.4028 7.44172 26.1937 6.6822 25.3277 6.1157C25.1594 6.0056 25.0065 5.90442 24.8674 5.81239C24.644 5.66453 24.4562 5.5403 24.2978 5.44073C24.1703 5.36059 24.0752 5.30503 24.0066 5.27056C24.002 5.26826 23.9977 5.26614 23.9936 5.26418C23.9839 5.26824 23.973 5.27298 23.9607 5.27847C23.879 5.31514 23.7671 5.37283 23.6209 5.4533C23.4121 5.56823 23.1541 5.71791 22.8447 5.89748C22.7203 5.96964 22.5876 6.04662 22.4465 6.12812C21.4693 6.69239 20.1267 7.44886 18.506 8.20595C15.3716 9.67011 11.1772 11.1462 6.53664 11.2389ZM24.0505 5.24333C24.0505 5.24337 24.0495 5.24366 24.0476 5.24409L24.0505 5.24333ZM23.7842 4.43372C23.835 4.41757 23.9129 4.39648 24 4.39648C24.1562 4.39648 24.3043 4.4667 24.3887 4.50906C24.495 4.56241 24.618 4.63565 24.7513 4.71943C24.9171 4.82365 25.1195 4.95755 25.351 5.11069C25.4889 5.20193 25.6372 5.30001 25.7942 5.40271C26.6465 5.96027 27.8238 6.69949 29.3152 7.43825C32.2971 8.91531 36.5365 10.3915 41.9235 10.3915H42.3833L42.3483 10.85C41.7344 18.8786 40.6157 25.571 37.9334 31.0003C35.2408 36.4502 30.9874 40.5993 24.1701 43.5685L24 43.6426L23.8299 43.5685C17.0126 40.5993 12.7592 36.4502 10.0667 31.0003C7.38433 25.571 6.26563 18.8786 5.65176 10.85L5.6167 10.3915H6.07652C10.7265 10.3915 14.9662 8.91911 18.1454 7.43402C19.7331 6.69235 21.051 5.95008 22.0205 5.39028C22.1556 5.31228 22.2847 5.23734 22.4073 5.1662C22.7212 4.98403 22.9922 4.82677 23.2101 4.70686C23.3618 4.62341 23.4979 4.5523 23.6119 4.50115C23.6689 4.47557 23.7274 4.45177 23.7842 4.43372ZM16.5856 17.1023H21.54V19.1535H26.46V17.1023H31.4144V22.0567H29.3632V25.9667H31.4144V30.9211H26.46V28.8699H21.54V30.9211H16.5856V25.9667H18.6368V22.0567H16.5856V17.1023ZM19.4888 22.0567V25.9667H21.54V28.0179H26.46V25.9667H28.5112V22.0567H26.46V20.0055H21.54V22.0567H19.4888ZM17.4376 17.9543V21.2047H20.688V17.9543H17.4376ZM27.312 17.9543V21.2047H30.5624V17.9543H27.312ZM17.4376 26.8187V30.0691H20.688V26.8187H17.4376ZM27.312 26.8187V30.0691H30.5624V26.8187H27.312Z" fill="#F3652B"/>
</svg>
