<svg width="48" height="48" viewBox="0 0 48 48" fill="none" xmlns="http://www.w3.org/2000/svg">
<path fill-rule="evenodd" clip-rule="evenodd" d="M29.6295 6.37182C29.8347 6.2567 29.9077 5.99705 29.7926 5.79186C29.6775 5.58667 29.4179 5.51365 29.2127 5.62877L25.4277 7.75224C25.2225 7.86735 25.1495 8.12701 25.2646 8.3322C25.3797 8.53738 25.6394 8.6104 25.8446 8.49529L29.6295 6.37182ZM22.0201 9.87615C21.8903 9.80292 21.7315 9.80292 21.6017 9.87615L15.1621 13.507L15.7876 14.1325L21.8109 10.7363L35.5545 18.4855L24.5813 24.6726C24.3764 24.7882 24.3039 25.048 24.4195 25.2529C24.5351 25.4579 24.7949 25.5303 24.9998 25.4148L35.9959 19.2147V34.7132L22.2369 42.471V31.0887C22.2369 30.8534 22.0462 30.6627 21.8109 30.6627C21.5756 30.6627 21.3849 30.8534 21.3849 31.0887V42.471L7.62593 34.7132V19.2147L18.622 25.4148C18.827 25.5303 19.0868 25.4579 19.2023 25.2529C19.3179 25.048 19.2454 24.7882 19.0405 24.6726L8.06728 18.4855L15.7876 14.1325L15.1621 13.507L6.9907 18.1144C6.85677 18.1899 6.77393 18.3317 6.77393 18.4855V34.962C6.77393 35.1158 6.85677 35.2576 6.9907 35.3331L21.6017 43.5714C21.7315 43.6446 21.8903 43.6446 22.0201 43.5714L36.6311 35.3331C36.765 35.2576 36.8479 35.1158 36.8479 34.962V18.4855C36.8479 18.3317 36.765 18.1899 36.6311 18.1144L22.0201 9.87615ZM44.6088 14.3935C44.8139 14.2782 44.8866 14.0184 44.7712 13.8134C44.6558 13.6083 44.3961 13.5356 44.191 13.651L40.6879 15.622C40.4829 15.7374 40.4102 15.9972 40.5255 16.2022C40.6409 16.4072 40.9007 16.4799 41.1057 16.3646L44.6088 14.3935ZM44.2067 31.0664C44.4116 30.9507 44.4839 30.6908 44.3682 30.486C44.2525 30.2811 43.9927 30.2088 43.7878 30.3245L40.3652 32.2571C40.1604 32.3727 40.0881 32.6326 40.2037 32.8375C40.3194 33.0423 40.5793 33.1146 40.7841 32.9989L44.2067 31.0664Z" fill="#F3652B"/>
</svg>
