<svg width="48" height="48" viewBox="0 0 48 48" fill="none" xmlns="http://www.w3.org/2000/svg">
<path fill-rule="evenodd" clip-rule="evenodd" d="M6.58536 10.5353C5.66545 11.3249 5.22505 12.134 5.22505 12.9253C5.22505 13.7166 5.66545 14.5257 6.58536 15.3152C7.50385 16.1035 8.85788 16.8327 10.5681 17.4535C13.9656 18.6867 18.6797 19.4604 23.9098 19.4692V20.3212C18.6068 20.3124 13.7898 19.5293 10.2774 18.2544C8.51303 17.6139 7.05519 16.8412 6.03047 15.9617C5.72519 15.6997 5.45455 15.4247 5.22505 15.1376V19.8783C5.22577 19.8857 5.22711 19.8978 5.22942 19.9144C5.23468 19.9522 5.24499 20.0132 5.26459 20.0941C5.30376 20.2557 5.38017 20.4975 5.52815 20.7934C5.8229 21.3829 6.40836 22.2011 7.57472 23.0331C9.91475 24.7022 14.6121 26.4389 24.0001 26.4389C33.387 26.4389 38.0844 24.7022 40.4247 23.0331C41.5912 22.2011 42.1769 21.3829 42.4718 20.7934C42.6198 20.4974 42.6963 20.2556 42.7355 20.094C42.7551 20.0131 42.7654 19.9521 42.7707 19.9143L42.7735 19.8932L42.7751 19.8783V15.1374C42.5455 15.4246 42.2748 15.6997 41.9694 15.9618C40.9445 16.8412 39.4865 17.6139 37.722 18.2544C34.1894 19.5366 29.2474 20.3212 23.9098 20.3212V19.4692C29.1749 19.4692 34.014 18.6938 37.4313 17.4535C39.1417 16.8327 40.4959 16.1035 41.4145 15.3152C42.3346 14.5256 42.7751 13.7165 42.7751 12.9253C42.7751 12.134 42.3346 11.3249 41.4145 10.5354C40.4959 9.74704 39.1417 9.01785 37.4313 8.39704C34.0252 7.16075 29.2447 6.38634 24.0001 6.3813V5.5293C29.3174 5.53433 34.2008 6.3181 37.722 7.59617C39.4865 8.23662 40.9445 9.00932 41.9694 9.88879C42.9928 10.767 43.6271 11.7916 43.6271 12.9253V35.0859L43.6266 35.0964L43.2011 35.0754C43.6266 35.0964 43.6265 35.0976 43.6265 35.0976L43.6264 35.0989L43.6263 35.1022L43.6257 35.1105L43.6237 35.1348C43.6219 35.1543 43.619 35.1804 43.6145 35.2125C43.6056 35.2768 43.5901 35.3656 43.5635 35.4753C43.5103 35.6948 43.4125 35.9976 43.2337 36.355C42.8749 37.0724 42.196 37.9967 40.9194 38.9072C38.3735 40.723 33.4704 42.4714 24.0001 42.4714C14.5288 42.4714 9.62564 40.723 7.07996 38.9072C5.80347 37.9967 5.12479 37.0723 4.7661 36.355C4.58737 35.9975 4.48974 35.6947 4.43655 35.4752C4.40997 35.3655 4.39451 35.2767 4.38556 35.2124C4.38108 35.1803 4.37823 35.1542 4.37642 35.1347L4.37442 35.1104L4.37387 35.102L4.37369 35.0988L4.37362 35.0975C4.37362 35.0975 4.37356 35.0963 4.79905 35.0754L4.37356 35.0963L4.37305 35.0858V12.9253C4.37305 11.7917 5.00718 10.7671 6.03047 9.88881C7.05519 9.00933 8.51303 8.23663 10.2774 7.59617C13.8098 6.31397 18.6615 5.5293 24.0001 5.5293V6.3813C18.7339 6.3813 13.9851 7.15671 10.5681 8.39704C8.85788 9.01785 7.50385 9.74703 6.58536 10.5353ZM42.7751 21.9289C42.3726 22.489 41.7827 23.111 40.9194 23.7267C38.3735 25.5425 33.4704 27.2909 24.0001 27.2909C14.5288 27.2909 9.62564 25.5425 7.07996 23.7267C6.21711 23.1112 5.62741 22.4894 5.22505 21.9295V27.4687C5.22577 27.4761 5.22711 27.4882 5.22942 27.5049C5.23468 27.5426 5.24499 27.6036 5.26459 27.6845C5.30376 27.8461 5.38017 28.0879 5.52815 28.3839C5.8229 28.9734 6.40836 29.7915 7.57472 30.6235C9.91475 32.2926 14.6121 34.0293 24.0001 34.0293C33.387 34.0293 38.0844 32.2926 40.4247 30.6235C41.5912 29.7915 42.1769 28.9733 42.4718 28.3838C42.6198 28.0878 42.6963 27.8461 42.7355 27.6844C42.7551 27.6035 42.7654 27.5425 42.7707 27.5047L42.7733 27.4854L42.7751 27.4687V21.9289ZM42.7751 29.5194C42.3726 30.0794 41.7827 30.7014 40.9194 31.3171C38.3735 33.133 33.4704 34.8813 24.0001 34.8813C14.5288 34.8813 9.62564 33.133 7.07996 31.3171C6.21711 30.7016 5.62741 30.0799 5.22505 29.52V35.0588C5.22577 35.0662 5.22711 35.0783 5.22942 35.0949C5.23468 35.1327 5.24499 35.1937 5.26459 35.2746C5.30376 35.4362 5.38017 35.678 5.52815 35.9739C5.8229 36.5634 6.40836 37.3816 7.57472 38.2136C9.91475 39.8827 14.6121 41.6194 24.0001 41.6194C33.387 41.6194 38.0844 39.8827 40.4247 38.2136C41.5912 37.3816 42.1769 36.5634 42.4718 35.9739C42.6198 35.6779 42.6963 35.4361 42.7355 35.2745C42.7551 35.1936 42.7654 35.1326 42.7707 35.0948C42.773 35.0782 42.7744 35.0661 42.7751 35.0587V29.5194Z" fill="#F3652B"/>
</svg>
