<svg width="48" height="48" viewBox="0 0 48 48" fill="none" xmlns="http://www.w3.org/2000/svg">
<g clip-path="url(#clip0_2801_6255)">
<path d="M12.2205 2.75307C12.1159 3.23895 12.1162 3.23902 12.1162 3.23902L12.1124 3.23824L12.0906 3.23401C12.0702 3.23016 12.0382 3.22441 11.9958 3.21763C11.9107 3.20406 11.784 3.18643 11.6243 3.17165C11.304 3.14202 10.8555 3.12429 10.3464 3.17183C9.32362 3.26734 8.09892 3.62112 7.15061 4.62334C5.60164 6.26101 5.59196 8.44746 5.66247 10.2942C5.67899 10.7119 5.72022 11.273 5.76879 11.934L5.80559 12.4376C5.86878 13.3119 5.93563 14.31 5.96964 15.32C6.00363 16.3289 6.00518 17.3582 5.9361 18.2949C5.86757 19.2241 5.7274 20.097 5.46033 20.7752C4.79993 22.4594 3.5736 23.386 2.44501 23.8891C2.35652 23.9285 2.26854 23.9654 2.18135 23.9999C2.26854 24.0344 2.35652 24.0713 2.44501 24.1107C3.57366 24.6138 4.80005 25.5405 5.46043 27.2249C5.72742 27.903 5.86758 28.7758 5.9361 29.7049C6.00518 30.6416 6.00363 31.6709 5.96964 32.6798C5.93563 33.6898 5.86878 34.6879 5.80559 35.5622L5.76879 36.0658C5.72024 36.7265 5.67903 37.2873 5.6625 37.705C5.59199 39.5517 5.60167 41.7388 7.15061 43.3764C8.09892 44.3787 9.32362 44.7324 10.3464 44.828C10.8555 44.8755 11.304 44.8578 11.6243 44.8281C11.784 44.8134 11.9107 44.7957 11.9958 44.7822C12.0382 44.7754 12.0702 44.7696 12.0906 44.7658L12.1124 44.7615L12.1162 44.7608C12.1162 44.7608 12.1159 44.7608 12.2205 45.2467C12.325 45.7326 12.3246 45.7327 12.3246 45.7327L12.3229 45.733L12.3196 45.7337L12.3094 45.7358L12.2749 45.7426C12.2458 45.748 12.2046 45.7554 12.1524 45.7637C12.0481 45.7804 11.8996 45.8009 11.7159 45.8179C11.3492 45.8518 10.8376 45.8721 10.254 45.8177C9.09151 45.7091 7.60073 45.2985 6.42847 44.0595C4.56212 42.0863 4.59978 39.4859 4.66925 37.6663C4.68651 37.23 4.72943 36.6461 4.77816 35.9832L4.81417 35.4905C4.87718 34.6188 4.94286 33.6364 4.97621 32.6463C5.00959 31.6553 5.01022 30.6651 4.94479 29.778C4.87881 28.8834 4.74751 28.1273 4.53517 27.5881C3.9932 26.2054 2.99545 25.4443 2.04034 25.0186C1.10047 24.5997 0.217859 24.5144 -0.0928322 24.4975C-0.121188 24.4987 -0.144398 24.4994 -0.162075 24.4998L-0.189214 24.5003L-0.197465 24.5003L-0.200229 24.5004L-0.202028 24.5004L-0.202148 24.4934L-0.201994 23.5064L-0.201662 23.4994L-0.200196 23.4994L-0.197435 23.4994L-0.18919 23.4995L-0.162057 23.5C-0.144387 23.5004 -0.12118 23.5011 -0.0928295 23.5023C0.217861 23.4854 1.10047 23.4001 2.04034 22.9812C2.99545 22.5554 3.99348 21.7937 4.53545 20.411C4.7478 19.8717 4.87881 19.1164 4.94479 18.2218C5.01022 17.3347 5.00959 16.3445 4.97621 15.3534C4.94286 14.3634 4.87718 13.381 4.81417 12.5093L4.77817 12.0167C4.72944 11.3538 4.68648 10.7691 4.66922 10.3328C4.59975 8.51324 4.56217 5.91347 6.42852 3.94024C7.60079 2.70127 9.09151 2.29069 10.254 2.18214C10.8376 2.12764 11.3492 2.14796 11.7159 2.18188C11.8996 2.19888 12.0481 2.21941 12.1524 2.23605C12.2046 2.24437 12.2458 2.25174 12.2749 2.25723L12.3094 2.26396L12.3196 2.26606L12.3229 2.26676L12.3246 2.26711C12.3246 2.26711 12.325 2.2672 12.2205 2.75307Z" fill="#F3652B"/>
<path d="M37.7792 2.75307C37.8838 3.23895 37.8835 3.23902 37.8835 3.23902L37.8873 3.23824L37.9091 3.23401C37.9295 3.23016 37.9614 3.22441 38.0039 3.21763C38.089 3.20406 38.2157 3.18643 38.3754 3.17165C38.6957 3.14202 39.1442 3.12429 39.6533 3.17183C40.6761 3.26734 41.9008 3.62112 42.8491 4.62334C44.398 6.26101 44.4077 8.44746 44.3372 10.2942C44.3207 10.7119 44.2795 11.273 44.2309 11.934L44.1941 12.4376C44.1309 13.3119 44.0641 14.31 44.03 15.32C43.9961 16.3289 43.9945 17.3582 44.0636 18.2949C44.1321 19.2241 44.2723 20.097 44.5394 20.7752C45.1998 22.4594 46.4261 23.386 47.5547 23.8891C47.6432 23.9285 47.7311 23.9654 47.8183 23.9999C47.7311 24.0344 47.6432 24.0713 47.5547 24.1107C46.426 24.6138 45.1996 25.5405 44.5393 27.2249C44.2723 27.903 44.1321 28.7758 44.0636 29.7049C43.9945 30.6416 43.9961 31.6709 44.03 32.6798C44.0641 33.6898 44.1309 34.6879 44.1941 35.5622L44.2309 36.0658C44.2794 36.7265 44.3207 37.2873 44.3372 37.705C44.4077 39.5517 44.398 41.7388 42.8491 43.3764C41.9008 44.3787 40.6761 44.7324 39.6533 44.828C39.1442 44.8755 38.6957 44.8578 38.3754 44.8281C38.2157 44.8134 38.089 44.7957 38.0039 44.7822C37.9614 44.7754 37.9295 44.7696 37.9091 44.7658L37.8873 44.7615L37.8835 44.7608C37.8835 44.7608 37.8838 44.7608 37.7792 45.2467C37.6747 45.7326 37.6751 45.7327 37.6751 45.7327L37.6767 45.733L37.6801 45.7337L37.6903 45.7358L37.7248 45.7426C37.7539 45.748 37.7951 45.7554 37.8473 45.7637C37.9516 45.7804 38.1001 45.8009 38.2838 45.8179C38.6505 45.8518 39.1621 45.8721 39.7457 45.8177C40.9082 45.7091 42.399 45.2985 43.5712 44.0595C45.4376 42.0863 45.3999 39.4859 45.3304 37.6663C45.3132 37.2301 45.2703 36.6463 45.2215 35.9836L45.1855 35.4905C45.1225 34.6188 45.0568 33.6364 45.0235 32.6463C44.9901 31.6553 44.9895 30.6651 45.0549 29.778C45.1209 28.8834 45.2522 28.1273 45.4645 27.5881C46.0065 26.2054 47.0042 25.4443 47.9593 25.0186C48.8992 24.5997 49.7818 24.5144 50.0925 24.4975C50.1209 24.4987 50.1441 24.4994 50.1618 24.4998L50.1889 24.5003L50.1972 24.5003L50.1999 24.5004L50.2017 24.5004L50.2018 24.4934L50.2017 23.5064L50.2013 23.4994L50.1999 23.4994L50.1971 23.4994L50.1889 23.4995L50.1617 23.5C50.1441 23.5004 50.1209 23.5011 50.0925 23.5023C49.7818 23.4854 48.8992 23.4001 47.9593 22.9812C47.0042 22.5554 46.0062 21.7937 45.4642 20.411C45.2519 19.8717 45.1209 19.1164 45.0549 18.2218C44.9895 17.3347 44.9901 16.3445 45.0235 15.3534C45.0568 14.3634 45.1225 13.381 45.1855 12.5093L45.2215 12.0167C45.2702 11.3538 45.3132 10.7691 45.3305 10.3328C45.3999 8.51324 45.4375 5.91347 43.5712 3.94024C42.3989 2.70127 40.9082 2.29069 39.7457 2.18214C39.1621 2.12764 38.6505 2.14796 38.2838 2.18188C38.1001 2.19888 37.9516 2.21941 37.8473 2.23605C37.7951 2.24437 37.7539 2.25174 37.7248 2.25723L37.6903 2.26396L37.6801 2.26606L37.6767 2.26676L37.6751 2.26711C37.6751 2.26711 37.6747 2.2672 37.7792 2.75307Z" fill="#F3652B"/>
<path d="M32.3414 13.4612C32.5372 13.0044 32.5369 13.0043 32.5369 13.0043L32.5331 13.0027L32.5244 12.999L32.4936 12.9863C32.4673 12.9755 32.4293 12.9602 32.3806 12.9412C32.2833 12.9033 32.143 12.8508 31.9671 12.7904C31.6157 12.6697 31.1193 12.5167 30.5365 12.3865C29.3825 12.1287 27.8369 11.948 26.398 12.3306C25.1768 12.6544 24.4914 13.7936 24.11 14.9875C23.7209 16.2053 23.593 17.6403 23.593 18.8361V20.0338H20.2757V21.0278H23.593V38.7098H24.587V21.0278H30.7036V20.0338H24.587V18.8361C24.587 17.6937 24.7111 16.3721 25.0569 15.29C25.4103 14.1838 25.943 13.4795 26.6533 13.2913C27.8668 12.9685 29.2291 13.1129 30.3198 13.3566C30.8593 13.4771 31.3196 13.619 31.6442 13.7305C31.8063 13.7861 31.9339 13.834 32.02 13.8675C32.063 13.8842 32.0955 13.8974 32.1168 13.9061L32.14 13.9157L32.1458 13.9181C32.1458 13.9181 32.1456 13.9181 32.3414 13.4612Z" fill="#F3652B"/>
</g>
<defs>
<clipPath id="clip0_2801_6255">
<rect width="56" height="56" fill="white" transform="translate(-3 -4)"/>
</clipPath>
</defs>
</svg>
