<svg width="48" height="48" viewBox="0 0 48 48" fill="none" xmlns="http://www.w3.org/2000/svg">
<path fill-rule="evenodd" clip-rule="evenodd" d="M30.8569 10.4691C30.8569 6.75071 33.9063 3.73145 37.6614 3.73145C41.4166 3.73145 44.466 6.75071 44.466 10.4691V12.4965H46.0271V26.1279H29.2064V12.4965H30.8569V10.4691ZM31.7089 12.4965H43.614V10.4691C43.614 7.22904 40.9539 4.58345 37.6614 4.58345C34.369 4.58345 31.7089 7.22904 31.7089 10.4691V12.4965ZM1.9751 8.63788H22.7433V12.6992H21.8913V9.48988H2.8271V37.0068H18.0676L16.4395 40.3745H26.6805L24.9409 37.0068H40.2478L40.2672 31.1903H36.9924V30.3383H41.1221L41.0969 37.8588H26.3399L28.0795 41.2265H15.0812L16.7093 37.8588H1.9751V8.63788ZM30.0584 13.3485V25.2759H45.1751V13.3485H30.0584ZM35.6296 17.7174C35.6296 16.6386 36.5077 15.7302 37.6168 15.7302C38.6956 15.7302 39.6039 16.6084 39.6039 17.7174C39.6039 18.2951 39.3588 18.8088 38.9777 19.1736L39.7683 22.9831H35.4435L36.234 19.1505C35.8537 18.782 35.6296 18.2691 35.6296 17.7174ZM37.6168 16.5822C36.9862 16.5822 36.4816 17.1012 36.4816 17.7174C36.4816 18.0928 36.6606 18.433 36.9518 18.6433L37.1753 18.8047L36.4892 22.1311H38.7214L38.0357 18.8273L38.2594 18.6656C38.5584 18.4497 38.7519 18.1059 38.7519 17.7174C38.7519 17.0869 38.233 16.5822 37.6168 16.5822Z" fill="#F3652B"/>
</svg>
