<svg width="48" height="48" viewBox="0 0 48 48" fill="none" xmlns="http://www.w3.org/2000/svg">
<path d="M38.3172 47.2603H10.6778C9.19955 47.2603 8 46.0558 8 44.5825V2.68287C8 1.20459 9.20453 0 10.6778 0H38.3172C39.7955 0 41 1.20459 41 2.68287V44.5825C41 46.0608 39.7955 47.2603 38.3172 47.2603ZM10.6778 1.09026C9.80181 1.09026 9.09005 1.802 9.09005 2.67801V44.5774C9.09005 45.4534 9.80181 46.1652 10.6778 46.1652H38.3172C39.1932 46.1652 39.905 45.4534 39.905 44.5774V2.67801C39.905 1.802 39.1932 1.09026 38.3172 1.09026H10.6778Z" fill="#F3652B"/>
<path d="M24.4911 44.0547C22.5649 44.0547 20.997 42.4868 20.997 40.5606C20.997 38.6343 22.5649 37.0664 24.4911 37.0664C26.4174 37.0664 27.9802 38.6343 27.9802 40.5606C27.9802 42.4868 26.4124 44.0547 24.4911 44.0547ZM24.4911 38.1616C23.1671 38.1616 22.092 39.2366 22.092 40.5606C22.092 41.8845 23.1671 42.9596 24.4911 42.9596C25.8151 42.9596 26.8902 41.8845 26.8902 40.5606C26.8902 39.2366 25.8151 38.1616 24.4911 38.1616Z" fill="#F3652B"/>
</svg>
