<svg width="48" height="48" viewBox="0 0 48 48" fill="none" xmlns="http://www.w3.org/2000/svg">
<g clip-path="url(#clip0_2801_5932)">
<path d="M23.9999 47.4964C36.9767 47.4964 47.4964 36.9767 47.4964 23.9999C47.4964 11.0232 36.9767 0.503418 23.9999 0.503418C11.0232 0.503418 0.503418 11.0232 0.503418 23.9999C0.503418 36.9767 11.0232 47.4964 23.9999 47.4964Z" stroke="#F3652B" stroke-width="1.4" stroke-miterlimit="10"/>
<path d="M41.4878 39.6587C40.0109 38.8867 38.1312 38.0811 35.9326 37.2923C30.3941 35.2783 28.6319 33.5832 28.6319 29.9412C28.6319 27.7594 30.327 28.4643 31.0654 24.4699C31.3675 22.8083 32.8612 24.4363 33.1466 20.6601C33.1466 19.1496 32.3242 18.7804 32.3242 18.7804C32.3242 18.7804 32.7438 16.5482 32.8948 14.8195C33.0962 12.6713 31.6529 7.13281 23.9829 7.13281C16.313 7.13281 14.8696 12.6713 15.071 14.8195C15.2389 16.5314 15.6417 18.7804 15.6417 18.7804C15.6417 18.7804 14.8193 19.1496 14.8193 20.6601C15.1046 24.4531 16.5983 22.8251 16.9004 24.4699C17.6389 28.4811 19.334 27.7594 19.334 29.9412C19.334 33.5832 17.5717 35.2783 12.0333 37.2923C9.83467 38.0978 7.97173 38.9034 6.47803 39.6587C10.7745 44.4587 17.0179 47.4964 23.9661 47.4964C30.9144 47.4964 37.1913 44.4587 41.4878 39.6587Z" stroke="#F3652B" stroke-width="1.4" stroke-miterlimit="10"/>
</g>
<defs>
<clipPath id="clip0_2801_5932">
<rect width="48" height="48" fill="white"/>
</clipPath>
</defs>
</svg>
