<svg width="48" height="48" viewBox="0 0 48 48" fill="none" xmlns="http://www.w3.org/2000/svg">
<g clip-path="url(#clip0_2963_4991)">
<path d="M21.0846 43.1111H15.4889C9.64925 43.1111 4.87207 38.3339 4.87207 32.4943V25.5449" stroke="#F3652B" stroke-miterlimit="10"/>
<path d="M26.7354 4.88672H32.4727C38.3123 4.88672 43.0895 9.6639 43.0895 15.5035V23.0038" stroke="#F3652B" stroke-miterlimit="10"/>
<path d="M42.9945 26.1758V32.4955C42.9945 38.3352 38.2173 43.1123 32.3776 43.1123H23.8857" stroke="#F3652B" stroke-linecap="round" stroke-linejoin="round"/>
<path d="M4.76953 21.9647V21.1777" stroke="#F3652B" stroke-linecap="round" stroke-linejoin="round"/>
<path d="M4.76953 18.7539V15.5035C4.76953 9.6639 9.54671 4.88672 15.3864 4.88672H22.4931" stroke="#F3652B" stroke-linecap="round" stroke-linejoin="round"/>
<path d="M23.7051 4.88672H24.4921" stroke="#F3652B" stroke-linecap="round" stroke-linejoin="round"/>
<path d="M0.385742 29.7634L4.88746 25.2695L9.38132 29.7634" stroke="#F3652B" stroke-miterlimit="10"/>
<path d="M19.9902 0.384766L24.492 4.88649L19.9902 9.38034" stroke="#F3652B" stroke-miterlimit="10"/>
<path d="M28.3797 47.6049L23.8779 43.111L28.3797 38.6172" stroke="#F3652B" stroke-miterlimit="10"/>
<path d="M47.5912 18.5098L43.0974 23.0036L38.6035 18.5098" stroke="#F3652B" stroke-miterlimit="10"/>
<path d="M35 17.8625C35 19.996 30.0742 21.7251 24 21.7251C17.9247 21.7251 13 19.996 13 17.8625M35 17.8625C35 15.7291 30.0742 14 24 14C17.9247 14 13 15.7291 13 17.8625M35 17.8625V30.1375C35 30.1375 34.8031 34 24 34C13.1958 34 13 30.1375 13 30.1375V17.8625M13 21.7249C13 21.7249 13.1958 25.5874 24 25.5874C34.8031 25.5874 35 21.7249 35 21.7249M13 25.9313C13 25.9313 13.1958 29.7938 24 29.7938C34.8031 29.7938 35 25.9313 35 25.9313" stroke="#F3652B"/>
</g>
<defs>
<clipPath id="clip0_2963_4991">
<rect width="47.9843" height="48" fill="white"/>
</clipPath>
</defs>
</svg>
