<svg width="48" height="33" viewBox="0 0 48 33" fill="none" xmlns="http://www.w3.org/2000/svg">
<path d="M24.0004 31.2622C14.1942 31.2622 5.28747 25.4487 1.31672 16.4541L1.20703 16.1909L1.31672 15.9276C5.28747 6.91118 14.1942 1.09766 24.0004 1.09766C33.8067 1.09766 42.7134 6.91118 46.6842 15.9057L46.7939 16.169L46.6842 16.4322C42.7134 25.4267 33.8067 31.2403 24.0004 31.2403V31.2622Z" stroke="#F3652B" stroke-miterlimit="10"/>
<path d="M23.9996 25.3157C18.9539 25.3157 14.8516 21.2133 14.8516 16.1676C14.8516 11.1219 18.9539 7.01953 23.9996 7.01953C29.0453 7.01953 33.1477 11.1219 33.1477 16.1676C33.1477 21.2133 29.0453 25.3157 23.9996 25.3157Z" stroke="#F3652B" stroke-miterlimit="10"/>
</svg>
