<svg width="37" height="37" viewBox="0 0 37 37" fill="none" xmlns="http://www.w3.org/2000/svg">
<path d="M35.9932 32.0653H35.4932L35.4932 32.0669L35.9932 32.0653ZM13.203 8.34913C12.9269 8.34913 12.703 8.57299 12.703 8.84913C12.703 9.12527 12.9269 9.34913 13.203 9.34913V8.34913ZM36 9.34913C36.2761 9.34913 36.5 9.12527 36.5 8.84913C36.5 8.57299 36.2761 8.34913 36 8.34913V9.34913ZM8.8221 8.34913C8.54596 8.34913 8.3221 8.57299 8.3221 8.84913C8.3221 9.12527 8.54596 9.34913 8.8221 9.34913V8.34913ZM11.594 9.34913C11.8701 9.34913 12.094 9.12527 12.094 8.84913C12.094 8.57299 11.8701 8.34913 11.594 8.34913V9.34913ZM6.28685 8.34913C6.0107 8.34913 5.78685 8.57299 5.78685 8.84913C5.78685 9.12527 6.0107 9.34913 6.28685 9.34913V8.34913ZM7.05756 9.34913C7.3337 9.34913 7.55756 9.12527 7.55756 8.84913C7.55756 8.57299 7.3337 8.34913 7.05756 8.34913V9.34913ZM1 8.34913C0.723858 8.34913 0.5 8.57299 0.5 8.84913C0.5 9.12527 0.723858 9.34913 1 9.34913V8.34913ZM4.30597 9.34913C4.58211 9.34913 4.80597 9.12527 4.80597 8.84913C4.80597 8.57299 4.58211 8.34913 4.30597 8.34913V9.34913ZM36.5 4.92794C36.5 4.6518 36.2761 4.42794 36 4.42794C35.7239 4.42794 35.5 4.6518 35.5 4.92794H36.5ZM35.5 14.7985C35.5 15.0747 35.7239 15.2985 36 15.2985C36.2761 15.2985 36.5 15.0747 36.5 14.7985H35.5ZM36.5 14.8797C36.5 14.6035 36.2761 14.3797 36 14.3797C35.7239 14.3797 35.5 14.6035 35.5 14.8797H36.5ZM35.5 22.3705C35.5 22.6466 35.7239 22.8705 36 22.8705C36.2761 22.8705 36.5 22.6466 36.5 22.3705H35.5ZM23.0017 17.0027C22.7704 16.8519 22.4606 16.9173 22.3099 17.1487C22.1591 17.38 22.2245 17.6898 22.4559 17.8406L23.0017 17.0027ZM28.0833 20.9101L28.3566 21.3288C28.4981 21.2365 28.5833 21.0789 28.5833 20.9099C28.5832 20.7409 28.4978 20.5834 28.3562 20.4912L28.0833 20.9101ZM22.4555 23.9867C22.2243 24.1377 22.1592 24.4475 22.3101 24.6787C22.4611 24.9099 22.7709 24.975 23.0021 24.8241L22.4555 23.9867ZM20.336 17.4786C20.4347 17.2206 20.3056 16.9316 20.0476 16.833C19.7897 16.7343 19.5007 16.8634 19.402 17.1214L20.336 17.4786ZM16.4882 24.7406C16.3895 24.9986 16.5187 25.2876 16.7766 25.3863C17.0345 25.4849 17.3236 25.3558 17.4222 25.0978L16.4882 24.7406ZM14.5441 17.8406C14.7755 17.6898 14.8409 17.38 14.6901 17.1487C14.5394 16.9173 14.2296 16.8519 13.9983 17.0027L14.5441 17.8406ZM8.91674 20.9101L8.6438 20.4912C8.50223 20.5834 8.41682 20.7409 8.41674 20.9099C8.41667 21.0789 8.50194 21.2365 8.64343 21.3288L8.91674 20.9101ZM13.9979 24.8241C14.2291 24.975 14.5389 24.9099 14.6899 24.6787C14.8408 24.4475 14.7757 24.1377 14.5445 23.9867L13.9979 24.8241ZM32.0653 35.5H4.92795V36.5H32.0653V35.5ZM4.92795 35.5C3.04124 35.5 1.5 33.9531 1.5 32.0721H0.5C0.5 34.5043 2.48783 36.5 4.92795 36.5V35.5ZM1.5 32.0721V4.92795H0.5V32.0721H1.5ZM1.5 4.92795C1.5 3.04124 3.04688 1.5 4.92795 1.5V0.5C2.49571 0.5 0.5 2.48783 0.5 4.92795H1.5ZM4.92795 1.5H32.0653V0.5H4.92795V1.5ZM32.0653 1.5C33.952 1.5 35.4932 3.04688 35.4932 4.92795H36.4932C36.4932 2.49571 34.5054 0.5 32.0653 0.5V1.5ZM35.4932 4.92795V32.0653H36.4932V4.92795H35.4932ZM35.4932 32.0669C35.4991 33.9526 33.9529 35.5 32.0653 35.5V36.5C34.5045 36.5 36.5009 34.5048 36.4932 32.0637L35.4932 32.0669ZM13.203 9.34913H36V8.34913H13.203V9.34913ZM8.8221 9.34913H11.594V8.34913H8.8221V9.34913ZM6.28685 9.34913H7.05756V8.34913H6.28685V9.34913ZM1 9.34913H4.30597V8.34913H1V9.34913ZM5.95558 6.68547C6.78806 6.68547 7.46292 6.01061 7.46292 5.17812H6.46292C6.46292 5.45832 6.23577 5.68547 5.95558 5.68547V6.68547ZM7.46292 5.17812C7.46292 4.34564 6.78806 3.67078 5.95558 3.67078V4.67078C6.23577 4.67078 6.46292 4.89793 6.46292 5.17812H7.46292ZM5.95558 3.67078C5.12309 3.67078 4.44824 4.34564 4.44824 5.17812H5.44824C5.44824 4.89793 5.67538 4.67078 5.95558 4.67078V3.67078ZM4.44824 5.17812C4.44824 6.01061 5.12309 6.68547 5.95558 6.68547V5.68547C5.67538 5.68547 5.44824 5.45832 5.44824 5.17812H4.44824ZM9.85648 6.68547C10.689 6.68547 11.3638 6.01061 11.3638 5.17812H10.3638C10.3638 5.45832 10.1367 5.68547 9.85648 5.68547V6.68547ZM11.3638 5.17812C11.3638 4.34564 10.689 3.67078 9.85648 3.67078V4.67078C10.1367 4.67078 10.3638 4.89793 10.3638 5.17812H11.3638ZM9.85648 3.67078C9.024 3.67078 8.34914 4.34564 8.34914 5.17812H9.34914C9.34914 4.89793 9.57629 4.67078 9.85648 4.67078V3.67078ZM8.34914 5.17812C8.34914 6.01061 9.024 6.68547 9.85648 6.68547V5.68547C9.57629 5.68547 9.34914 5.45832 9.34914 5.17812H8.34914ZM13.7574 6.68547C14.5899 6.68547 15.2647 6.01061 15.2647 5.17812H14.2647C14.2647 5.45832 14.0376 5.68547 13.7574 5.68547V6.68547ZM15.2647 5.17812C15.2647 4.34564 14.5899 3.67078 13.7574 3.67078V4.67078C14.0376 4.67078 14.2647 4.89793 14.2647 5.17812H15.2647ZM13.7574 3.67078C12.9249 3.67078 12.2501 4.34565 12.2501 5.17812H13.2501C13.2501 4.89793 13.4772 4.67078 13.7574 4.67078V3.67078ZM12.2501 5.17812C12.2501 6.0106 12.9249 6.68547 13.7574 6.68547V5.68547C13.4772 5.68547 13.2501 5.45832 13.2501 5.17812H12.2501ZM36.5 14.7985V4.92794H35.5V14.7985H36.5ZM36.5 22.3705V14.8797H35.5V22.3705H36.5ZM22.4559 17.8406L27.8103 21.3291L28.3562 20.4912L23.0017 17.0027L22.4559 17.8406ZM27.8099 20.4914L22.4555 23.9867L23.0021 24.8241L28.3566 21.3288L27.8099 20.4914ZM19.402 17.1214L16.4882 24.7406L17.4222 25.0978L20.336 17.4786L19.402 17.1214ZM13.9983 17.0027L8.6438 20.4912L9.18968 21.3291L14.5441 17.8406L13.9983 17.0027ZM8.64343 21.3288L13.9979 24.8241L14.5445 23.9867L9.19006 20.4914L8.64343 21.3288Z" fill="#F3652B"/>
</svg>
