<svg width="48" height="48" viewBox="0 0 48 48" fill="none" xmlns="http://www.w3.org/2000/svg">
<path d="M5.55689 47.9899C5.25313 47.9899 5 47.7418 5 47.433V6.10571C5 4.98684 5.75436 4.12107 6.96942 3.84768C12.2499 2.64275 24.7852 0.0354492 24.9118 0.0101354C24.9473 9.88842e-06 24.9877 0 25.0232 0C26.1775 0 27.1192 1.02268 27.1192 2.27824L27.1546 17.3653C27.1546 17.669 26.9065 17.9222 26.6028 17.9222C26.299 17.9222 26.0509 17.6741 26.0459 17.3703L26.0104 2.28331C26.0104 1.66059 25.5953 1.14923 25.0738 1.11885C24.1018 1.32136 12.2904 3.78188 7.21749 4.94125C6.88335 5.01719 6.10874 5.28043 6.10874 6.11578V47.443C6.10874 47.7468 5.86068 48 5.55185 48L5.55689 47.9899Z" fill="#F3652B"/>
<path d="M10.9088 13.6136V13.7351H10.7671V13.6136H10.9088ZM11.5974 12.3681H10.0735C9.76973 12.3681 9.51657 12.6162 9.51657 12.92V14.4185C9.51657 14.7273 9.76973 14.9754 10.0735 14.9754H11.5974C11.9012 14.9754 12.1492 14.7273 12.1492 14.4185V12.92C12.1593 12.6162 11.9113 12.3681 11.5974 12.3681Z" fill="#F3652B"/>
<path d="M16.1843 13.6136V13.7351H16.0426V13.6136H16.1843ZM16.8779 12.3681H15.354C15.0503 12.3681 14.8022 12.6162 14.8022 12.92V14.4185C14.8022 14.7274 15.0503 14.9754 15.354 14.9754H16.8779C17.1817 14.9754 17.4348 14.7274 17.4348 14.4185V12.92C17.4348 12.6162 17.1918 12.3681 16.8779 12.3681Z" fill="#F3652B"/>
<path d="M21.4652 13.6136V13.7351H21.3235V13.6136H21.4652ZM22.1588 12.3681H20.6349C20.3312 12.3681 20.0831 12.6162 20.0831 12.92V14.4185C20.0831 14.7273 20.3312 14.9754 20.6349 14.9754H22.1588C22.4677 14.9754 22.7157 14.7273 22.7157 14.4185V12.92C22.7157 12.6162 22.4677 12.3681 22.1588 12.3681Z" fill="#F3652B"/>
<path d="M10.9088 22.3218V22.4382H10.7671V22.3218H10.9088ZM11.5974 21.0713H10.0735C9.76973 21.0713 9.51657 21.3194 9.51657 21.6231V23.1268C9.51657 23.4306 9.76973 23.6786 10.0735 23.6786H11.5974C11.9012 23.6786 12.1492 23.4306 12.1492 23.1268V21.6231C12.1593 21.3194 11.9113 21.0713 11.5974 21.0713Z" fill="#F3652B"/>
<path d="M16.1843 22.3217V22.4382H16.0426V22.3217H16.1843ZM16.8779 21.0712H15.354C15.0503 21.0712 14.8022 21.3193 14.8022 21.6231V23.1268C14.8022 23.4305 15.0503 23.6786 15.354 23.6786H16.8779C17.1817 23.6786 17.4348 23.4305 17.4348 23.1268V21.6231C17.4348 21.3193 17.1918 21.0712 16.8779 21.0712Z" fill="#F3652B"/>
<path d="M10.9088 31.0347V31.1511H10.7671V31.0347H10.9088ZM11.5974 29.7842H10.0735C9.76973 29.7842 9.51657 30.0323 9.51657 30.336V31.8346C9.51657 32.1434 9.76973 32.3915 10.0735 32.3915H11.5974C11.9012 32.3915 12.1492 32.1434 12.1492 31.8346V30.336C12.1593 30.0323 11.9113 29.7842 11.5974 29.7842Z" fill="#F3652B"/>
<path d="M16.1843 31.0348V31.1512H16.0426V31.0348H16.1843ZM16.8779 29.7842H15.354C15.0503 29.7842 14.8022 30.0323 14.8022 30.3361V31.8347C14.8022 32.1435 15.0503 32.3915 15.354 32.3915H16.8779C17.1817 32.3915 17.4348 32.1435 17.4348 31.8347V30.3361C17.4348 30.0323 17.1918 29.7842 16.8779 29.7842Z" fill="#F3652B"/>
<path d="M10.9088 39.7376V39.8541H10.7671V39.7376H10.9088ZM11.5974 38.4871H10.0735C9.76973 38.4871 9.51657 38.7352 9.51657 39.039V40.5426C9.51657 40.8463 9.76973 41.0945 10.0735 41.0945H11.5974C11.9012 41.0945 12.1492 40.8463 12.1492 40.5426V39.039C12.1593 38.7352 11.9113 38.4871 11.5974 38.4871Z" fill="#F3652B"/>
<path d="M21.1159 29.7842H20.6349C20.3312 29.7842 20.0831 30.0323 20.0831 30.336V31.8346C20.0831 32.1434 20.3312 32.3915 20.6349 32.3915H22.1436C21.8551 31.9612 21.5564 31.3537 21.3538 30.2652C21.3083 30.0222 21.2222 29.8854 21.1159 29.7842Z" fill="#F3652B"/>
<path d="M16.8779 38.4871H15.354C15.0503 38.4871 14.8022 38.7351 14.8022 39.0389V40.5425C14.8022 40.6995 14.868 40.8362 14.9692 40.9374C15.673 40.6185 16.4931 40.2894 17.4399 39.9401V39.0389C17.4348 38.7351 17.1817 38.4871 16.8779 38.4871Z" fill="#F3652B"/>
<path d="M43.4318 47.9897C43.1433 47.9897 42.9003 47.7669 42.88 47.4733C42.88 47.453 42.7332 45.4279 41.832 44.2584C40.9916 43.1699 39.6196 41.9447 35.2808 40.355C31.4433 38.9577 29.4941 37.6464 29.4941 34.3557C29.4941 33.4089 29.8688 32.9887 30.2282 32.5786C30.6079 32.1483 31.0433 31.6572 31.3116 30.1789C31.4483 29.4195 31.8888 29.2069 32.1774 29.0651C32.4558 28.9284 32.7444 28.7917 32.8507 27.3893C32.8507 26.7109 32.552 26.5185 32.5419 26.5135C32.3141 26.4071 32.2128 26.1742 32.2584 25.9262C32.2584 25.911 32.5571 24.2707 32.6836 23.0252C32.7444 22.4076 32.5621 20.9141 31.4585 19.699C30.3852 18.5143 28.7549 17.9169 26.6185 17.9169C24.482 17.9169 22.8518 18.5143 21.7785 19.699C20.6748 20.9141 20.4976 22.4076 20.5533 23.0252C20.6647 24.2707 20.9735 25.9059 20.9785 25.9211C21.0241 26.1692 20.8976 26.4173 20.6697 26.5236C20.6697 26.5236 20.3862 26.7211 20.3862 27.4298C20.4925 28.7867 20.776 28.9284 21.0545 29.06C21.3431 29.2018 21.7835 29.4144 21.9202 30.1738C22.1936 31.642 22.6239 32.1331 23.0036 32.5634C23.3631 32.9735 23.7327 33.3937 23.7327 34.3455C23.7327 37.6313 21.7835 38.9476 17.946 40.3449C14.1084 41.7524 12.3972 42.7649 11.415 44.2179C10.5037 45.5696 10.4885 47.4075 10.4885 47.4277C10.4885 47.7315 10.2404 47.9795 9.93161 47.9795C9.62785 47.9795 9.37979 47.7315 9.37979 47.4277C9.37979 47.3417 9.39496 45.2406 10.4986 43.6003C11.6276 41.9245 13.4806 40.8006 17.5663 39.302C21.4899 37.8692 22.6239 36.7605 22.6239 34.3455C22.6239 33.8139 22.4822 33.652 22.1683 33.2976C21.743 32.8115 21.1557 32.1483 20.8267 30.3763C20.7862 30.1637 20.776 30.1586 20.5685 30.0574C19.966 29.7637 19.4192 29.3486 19.2775 27.4703C19.2775 26.5894 19.5711 26.078 19.8293 25.8047C19.7331 25.2528 19.5357 24.0935 19.4496 23.1265C19.3433 21.9924 19.7635 20.261 20.9532 18.9497C21.8443 17.9726 23.5454 16.8081 26.6185 16.8081C29.6916 16.8081 31.3876 17.9777 32.2786 18.9548C33.4684 20.2661 33.8936 21.9975 33.7873 23.1316C33.6911 24.0986 33.5038 25.2528 33.4076 25.8047C33.6658 26.078 33.9645 26.5742 33.9645 27.4349C33.8228 29.3537 33.2709 29.7739 32.6685 30.0625C32.4609 30.1637 32.4457 30.1688 32.4103 30.3763C32.0812 32.1584 31.4939 32.8267 31.0686 33.3128C30.7547 33.6672 30.613 33.8291 30.613 34.3557C30.613 36.7706 31.747 37.8844 35.6707 39.3121C39.3918 40.674 41.4321 41.9143 42.718 43.58C43.8318 45.0178 43.9888 47.3062 43.9989 47.4024C44.0192 47.7062 43.7863 47.9694 43.4825 47.9897C43.4724 47.9897 43.4572 47.9897 43.4471 47.9897H43.4318Z" fill="#F3652B"/>
</svg>
