<svg width="38" height="48" viewBox="0 0 38 48" fill="none" xmlns="http://www.w3.org/2000/svg">
<g clip-path="url(#clip0_3040_19)">
<path d="M34.3889 34.0449V39.1894C34.3889 40.3545 33.9123 41.4136 33.1406 42.1853" stroke="#F3652B" stroke-miterlimit="10" stroke-linecap="round" stroke-linejoin="round"/>
<path d="M6.30566 8.14258H22.5713" stroke="#F3652B" stroke-miterlimit="10" stroke-linecap="round" stroke-linejoin="round"/>
<path d="M6.30566 12.4004H25.9757" stroke="#F3652B" stroke-miterlimit="10" stroke-linecap="round" stroke-linejoin="round"/>
<path d="M6.30566 16.8262H21.6937" stroke="#F3652B" stroke-miterlimit="10" stroke-linecap="round" stroke-linejoin="round"/>
<path d="M6.30566 21.2598H15.7019" stroke="#F3652B" stroke-miterlimit="10" stroke-linecap="round" stroke-linejoin="round"/>
<path d="M24.5918 44.1992C24.6977 44.6229 24.8868 45.0012 25.1592 45.3416" stroke="#F3652B" stroke-miterlimit="10" stroke-linecap="round" stroke-linejoin="round"/>
<path d="M25.954 46.0606C26.5819 46.4843 27.3309 46.6961 28.1858 46.6961C29.2223 46.6961 30.1074 46.3784 30.811 45.758C31.5222 45.1301 31.8853 44.313 31.8853 43.3295C31.8853 42.346 31.5222 41.5289 30.811 40.901C30.1074 40.2806 29.2298 39.9629 28.1858 39.9629C27.4368 39.9629 26.7711 40.1293 26.1885 40.4546C25.9616 40.5833 25.7573 40.727 25.5606 40.901C25.4547 40.9918 25.3563 41.0901 25.2656 41.1961C24.7511 41.7786 24.4863 42.4973 24.4863 43.3295" stroke="#F3652B" stroke-miterlimit="10" stroke-linecap="round" stroke-linejoin="round"/>
<path d="M25.4094 35.1875C25.3716 35.3993 25.3867 35.4069 25.3564 35.6339" stroke="#F3652B" stroke-miterlimit="10" stroke-linecap="round" stroke-linejoin="round"/>
<path d="M22.8141 20.3672C22.4888 20.5715 22.1938 20.806 21.9063 21.0556C20.3403 22.4628 19.5383 24.4449 19.5156 26.9491C19.5156 27.0247 19.5459 27.0928 19.5988 27.1458C19.6518 27.1987 19.7199 27.229 19.7955 27.229H25.9689C26.1202 27.229 26.2413 27.108 26.2488 26.9567C26.2715 26.1093 26.4909 25.436 26.8995 24.9518C27.3004 24.4752 27.8073 24.2482 28.4579 24.2482C29.8878 24.2482 30.5536 25.035 30.5536 26.7297C30.5536 27.4257 30.3417 28.0536 29.9029 28.6362C29.449 29.2414 28.7757 29.9223 27.8905 30.6637C26.96 31.4429 26.2715 32.3811 25.8554 33.4553C25.7495 33.7277 25.6587 34.0227 25.5831 34.3405" stroke="#F3652B" stroke-miterlimit="10" stroke-linecap="round" stroke-linejoin="round"/>
<path d="M25.243 37.4806C25.243 37.5789 25.243 37.6773 25.243 37.768C25.243 37.9194 25.3716 38.048 25.5229 38.048H30.7506C30.9019 38.048 31.0229 37.9269 31.0305 37.7756C31.0532 36.8829 31.1742 36.1491 31.3936 35.5741C31.6055 35.0142 32.0064 34.4544 32.5663 33.9173L34.6695 31.9578C35.5773 31.0727 36.2506 30.1951 36.6592 29.3402C37.0753 28.4777 37.2871 27.5094 37.2871 26.4578C37.2871 24.0671 36.5003 22.1984 34.9494 20.8896C33.4136 19.5959 31.2272 18.9453 28.4583 18.9453C26.7939 18.9453 25.3337 19.2025 24.1006 19.7019" stroke="#F3652B" stroke-miterlimit="10" stroke-linecap="round" stroke-linejoin="round"/>
<path d="M25.3789 1.30273L34.3893 10.2375" stroke="#F3652B" stroke-miterlimit="10" stroke-linecap="round" stroke-linejoin="round"/>
<path d="M34.3889 18.9528L34.4116 10.2375H29.9253C27.4136 10.2375 25.3634 7.96786 25.3634 5.19135V1.30273H4.78546C2.45531 1.30273 0.548828 3.20922 0.548828 5.53936V39.1827C0.548828 41.5129 2.45531 43.4194 4.78546 43.4194H23.2451" stroke="#F3652B" stroke-miterlimit="10" stroke-linecap="round" stroke-linejoin="round"/>
</g>
<defs>
<clipPath id="clip0_3040_19">
<rect width="37.7968" height="46.4516" fill="white" transform="translate(0.0195312 0.773438)"/>
</clipPath>
</defs>
</svg>
