<svg width="48" height="48" viewBox="0 0 48 48" fill="none" xmlns="http://www.w3.org/2000/svg">
<path d="M45.9248 23.9346L44.0331 27.2451C43.9256 27.4242 43.7393 27.5389 43.5315 27.5389H41.7329C41.6039 27.5389 41.4821 27.4959 41.3818 27.4171L39.6621 26.0915C39.4543 25.9338 39.1677 25.9338 38.9599 26.0915L37.3978 27.3024C37.2115 27.4457 36.9535 27.4601 36.7529 27.3383L34.5101 25.9983C34.3094 25.8765 34.0515 25.8908 33.8652 26.0341L32.0809 27.4171C31.9806 27.4959 31.8588 27.5389 31.7298 27.5389H22.6726C21.132 31.5444 17.2483 34.3891 12.691 34.3891C6.78658 34.3891 2 29.6026 2 23.691C2 17.7794 6.78658 13 12.691 13C17.2483 13 21.132 15.8447 22.6726 19.8503H43.5386C43.7393 19.8503 43.9256 19.9577 44.0331 20.1297L45.9248 23.3542C46.0251 23.5334 46.0251 23.7555 45.9248 23.9346Z" stroke="#F3652B" stroke-width="1.41845" stroke-linecap="round" stroke-linejoin="round"/>
<path d="M8.80625 26.5571C10.3892 26.5571 11.6725 25.2739 11.6725 23.6909C11.6725 22.1079 10.3892 20.8247 8.80625 20.8247C7.22328 20.8247 5.94003 22.1079 5.94003 23.6909C5.94003 25.2739 7.22328 26.5571 8.80625 26.5571Z" stroke="#F3652B" stroke-width="1.41845" stroke-linecap="round" stroke-linejoin="round"/>
</svg>
