<svg width="48" height="48" viewBox="0 0 48 48" fill="none" xmlns="http://www.w3.org/2000/svg">
<path fill-rule="evenodd" clip-rule="evenodd" d="M0.994 5.18172C0.994 2.87585 2.88259 0.994 5.18172 0.994H37.5524C39.8583 0.994 41.7402 2.88259 41.7402 5.18172V9.36164H0.994V5.18172ZM0.994 10.3556H41.7402V14.1776H42.7342V5.18172C42.7342 2.3347 40.4084 0 37.5524 0H5.18172C2.3347 0 0 2.3258 0 5.18172V37.5603C0 40.4073 2.3258 42.742 5.18172 42.742H25.2753C27.5977 45.6857 31.1969 47.5753 35.2374 47.5753C42.2415 47.5753 47.9194 41.8974 47.9194 34.8933C47.9194 30.6939 45.8784 26.9713 42.7342 24.6633V14.1776H41.7402V24.0031C39.8387 22.8653 37.6145 22.2113 35.2374 22.2113C28.2334 22.2113 22.5555 27.8893 22.5555 34.8933C22.5555 37.4186 23.2936 39.7714 24.5658 41.748H5.18172C2.87585 41.748 0.994 39.8594 0.994 37.5603V10.3556ZM6.40178 3.77752C5.46212 3.77752 4.70036 4.53927 4.70036 5.47894C4.70036 6.4186 5.46212 7.18035 6.40178 7.18035C7.34145 7.18035 8.1032 6.4186 8.1032 5.47894C8.1032 4.53927 7.34145 3.77752 6.40178 3.77752ZM5.69436 5.47894C5.69436 5.08824 6.01109 4.77152 6.40178 4.77152C6.79248 4.77152 7.1092 5.08824 7.1092 5.47894C7.1092 5.86963 6.79248 6.18635 6.40178 6.18635C6.01109 6.18635 5.69436 5.86963 5.69436 5.47894ZM11.063 3.77752C10.1234 3.77752 9.36162 4.53927 9.36162 5.47894C9.36162 6.4186 10.1234 7.18035 11.063 7.18035C12.0027 7.18035 12.7645 6.4186 12.7645 5.47894C12.7645 4.53927 12.0027 3.77752 11.063 3.77752ZM10.3556 5.47894C10.3556 5.08824 10.6723 4.77152 11.063 4.77152C11.4537 4.77152 11.7705 5.08824 11.7705 5.47894C11.7705 5.86963 11.4537 6.18635 11.063 6.18635C10.6723 6.18635 10.3556 5.86963 10.3556 5.47894ZM15.7165 3.77752C14.7768 3.77752 14.0151 4.53927 14.0151 5.47894C14.0151 6.4186 14.7768 7.18035 15.7165 7.18035C16.6561 7.18035 17.4179 6.4186 17.4179 5.47894C17.4179 4.53927 16.6561 3.77752 15.7165 3.77752ZM15.0091 5.47894C15.0091 5.08824 15.3258 4.77152 15.7165 4.77152C16.1072 4.77152 16.4239 5.08824 16.4239 5.47894C16.4239 5.86963 16.1072 6.18635 15.7165 6.18635C15.3258 6.18635 15.0091 5.86963 15.0091 5.47894ZM5.20519 14.4296C4.9307 14.4296 4.70819 14.6521 4.70819 14.9266C4.70819 15.2011 4.9307 15.4236 5.20519 15.4236H35.2375C35.5119 15.4236 35.7345 15.2011 35.7345 14.9266C35.7345 14.6521 35.5119 14.4296 35.2375 14.4296H5.20519ZM7.54363 19.1142C7.26915 19.1142 7.04663 19.3368 7.04663 19.6112C7.04663 19.8857 7.26915 20.1082 7.54363 20.1082H38.9446C39.219 20.1082 39.4416 19.8857 39.4416 19.6112C39.4416 19.3368 39.219 19.1142 38.9446 19.1142H7.54363ZM23.5495 34.8933C23.5495 28.4382 28.7824 23.2053 35.2374 23.2053C41.6925 23.2053 46.9254 28.4382 46.9254 34.8933C46.9254 41.3484 41.6925 46.5813 35.2374 46.5813C28.7824 46.5813 23.5495 41.3484 23.5495 34.8933ZM5.20519 23.9867C4.9307 23.9867 4.70819 24.2092 4.70819 24.4837C4.70819 24.7582 4.9307 24.9807 5.20519 24.9807H23.2402C23.5147 24.9807 23.7372 24.7582 23.7372 24.4837C23.7372 24.2092 23.5147 23.9867 23.2402 23.9867H5.20519ZM7.54363 28.867C7.26915 28.867 7.04663 29.0895 7.04663 29.364C7.04663 29.6385 7.26915 29.861 7.54363 29.861H17.8829C18.1574 29.861 18.3799 29.6385 18.3799 29.364C18.3799 29.0895 18.1574 28.867 17.8829 28.867H7.54363ZM32.7879 29.5531C32.6348 29.4569 32.4414 29.4515 32.2831 29.539C32.1249 29.6265 32.0266 29.7931 32.0266 29.974V40.5635C32.0266 40.7443 32.1249 40.9109 32.2831 40.9984C32.4414 41.0859 32.6348 41.0805 32.7879 40.9844L41.2189 35.6896C41.3636 35.5987 41.4515 35.4397 41.4515 35.2687C41.4515 35.0977 41.3636 34.9388 41.2189 34.8478L32.7879 29.5531ZM40.02 35.2687L33.0206 39.6645V30.873L40.02 35.2687Z" fill="#F3652B"/>
</svg>
