<svg width="48" height="48" viewBox="0 0 48 48" fill="none" xmlns="http://www.w3.org/2000/svg">
<path d="M42.3695 40.6022C41.5797 40.6022 40.7898 40.6022 40.0151 40.5922C38.536 40.5821 37.0619 40.5821 35.5777 40.5922C34.2043 40.5972 32.7804 40.6021 31.3768 40.587V39.4853H31.6938C32.7252 39.4651 33.4093 39.2688 33.7716 38.8814C34.0986 38.5343 34.2395 37.9559 34.1992 37.1056C34.159 36.1246 34.0735 35.1235 33.993 34.1575C33.9024 33.091 33.8118 31.9892 33.7716 30.8975C33.7061 29.2423 33.1025 27.8386 31.9353 26.6211L31.4473 26.1129L32.0611 25.7658C35.7136 23.688 40.9609 23.8742 44.2713 26.1935C46.3943 27.6776 47.5162 29.5893 47.6067 31.8784C47.647 32.8393 47.7276 33.8203 47.8081 34.7712C47.8785 35.6264 47.9539 36.512 47.9941 37.3874C48.0394 38.4338 47.8232 39.1986 47.3251 39.7218C46.7918 40.2903 45.9667 40.5619 44.7341 40.587C43.9442 40.6021 43.1493 40.6072 42.3595 40.6072L42.3695 40.6022ZM37.6655 39.4803C38.4504 39.4803 39.2353 39.4804 40.0201 39.4904C41.5596 39.5005 43.1543 39.5105 44.724 39.4803C45.6296 39.4653 46.2182 39.2941 46.5302 38.962C46.8069 38.6652 46.9276 38.1672 46.8974 37.4377C46.8572 36.5825 46.7818 35.7069 46.7113 34.8567C46.6308 33.8957 46.5503 32.8997 46.51 31.9186C46.4295 29.9666 45.4938 28.3868 43.6424 27.0889C40.8351 25.1167 36.4733 24.8603 33.2132 26.3998C34.2496 27.6877 34.808 29.1817 34.8734 30.852C34.9137 31.9186 35.0042 33.0105 35.0897 34.062C35.1702 35.043 35.2557 36.0541 35.301 37.0553C35.3513 38.1218 35.1551 38.9219 34.7023 39.4904C34.9941 39.4904 35.2859 39.4904 35.5777 39.4904C36.277 39.4904 36.9712 39.4853 37.6655 39.4853V39.4803Z" fill="#F3652B"/>
<path d="M38.4507 23.2304C38.4507 23.2304 38.4206 23.2304 38.4105 23.2304C37.686 23.2153 36.9615 23.0494 36.3125 22.7526C35.6736 22.4658 35.09 22.0381 34.5819 21.4796C34.1039 20.9514 33.7367 20.3025 33.5103 19.6082C33.2839 18.8787 33.2084 18.1593 33.2838 17.46C33.4146 16.157 34.0285 14.9494 35.0146 14.069C36.0107 13.1886 37.2634 12.7206 38.5915 12.7408C39.9147 12.7659 41.1674 13.2791 42.1132 14.1948C42.9433 14.9796 43.4867 16.011 43.6729 17.1279H43.693L43.7332 17.641C43.7835 18.3403 43.683 19.0546 43.4364 19.764C43.1748 20.4633 42.7925 21.0773 42.2944 21.6005C41.8114 22.1136 41.1976 22.5362 40.5235 22.8179C39.8795 23.0896 39.1802 23.2255 38.4557 23.2255L38.4507 23.2304ZM38.501 13.8477C37.4898 13.8477 36.5138 14.2199 35.7441 14.8991C34.9643 15.5933 34.4813 16.5442 34.3807 17.5806C34.3203 18.134 34.3806 18.7025 34.5617 19.281C34.7378 19.8244 35.0296 20.3326 35.4019 20.7451C35.8043 21.1878 36.2673 21.5249 36.7704 21.7513C37.2886 21.9878 37.857 22.1186 38.4305 22.1286C39.0041 22.1286 39.5776 22.023 40.1008 21.8017C40.6392 21.5803 41.1171 21.2533 41.4944 20.8458C41.8969 20.4283 42.1988 19.9401 42.4 19.3967C42.5661 18.9138 42.6516 18.4208 42.6415 17.9378L42.6264 17.7165C42.561 16.675 42.1032 15.7091 41.3485 14.9897C40.5989 14.2652 39.6128 13.8629 38.5664 13.8428C38.5462 13.8428 38.5211 13.8428 38.496 13.8428L38.501 13.8477Z" fill="#F3652B"/>
<path d="M14.4932 40.6026C13.7335 40.6026 12.9789 40.6026 12.2393 40.5926C10.7401 40.5825 9.25083 40.5825 7.77173 40.5926C6.31777 40.6026 4.81347 40.6077 3.32933 40.5825C2.03637 40.5624 1.18622 40.2856 0.65294 39.707C0.134749 39.1435 -0.0664949 38.3084 0.0190317 37.0859C0.0643105 36.3765 0.124599 35.6621 0.18497 34.9477C0.270497 33.9063 0.366179 32.8246 0.406427 31.7731C0.496985 29.5142 1.5585 27.7031 3.65138 26.229C6.97183 23.8896 12.2141 23.6633 15.8465 25.7008L16.4703 26.0529L15.9722 26.566C14.8051 27.7684 14.2064 29.1471 14.136 30.7822C14.0857 32.06 13.98 33.3528 13.8794 34.6055C13.819 35.335 13.7586 36.0645 13.7083 36.794C13.6379 37.8355 13.7687 38.4995 14.1158 38.8818C14.4831 39.2793 15.1673 39.4706 16.2792 39.4857H17.3104V40.5773L16.7672 40.5926C16.0125 40.6026 15.2528 40.6076 14.4982 40.6076L14.4932 40.6026ZM10.1816 25.4041C8.04342 25.4041 5.90526 25.9875 4.28026 27.1295C2.48923 28.3923 1.57861 29.9269 1.49811 31.8186C1.45786 32.8952 1.3623 33.9868 1.27678 35.0433C1.2164 35.7476 1.15599 36.457 1.11071 37.1613C1.04531 38.0669 1.15596 38.6354 1.45782 38.9624C1.76974 39.3045 2.36842 39.4707 3.3394 39.4807C4.81348 39.5059 6.31273 39.4959 7.76165 39.4908C9.24579 39.4808 10.7401 39.4808 12.2443 39.4908C12.5563 39.4908 12.8731 39.4908 13.1901 39.4908C12.7021 38.872 12.511 37.9865 12.6015 36.7137C12.6518 35.9792 12.7121 35.2445 12.7725 34.51C12.8731 33.2673 12.9788 31.9896 13.0291 30.7318C13.0995 29.0867 13.658 27.6125 14.6893 26.3447C13.3209 25.7108 11.7512 25.3989 10.1816 25.3989V25.4041Z" fill="#F3652B"/>
<path d="M10.2673 23.2304C10.2271 23.2304 10.1869 23.2304 10.1466 23.2304C9.32153 23.2153 8.52162 23.0343 7.772 22.6921C7.02239 22.345 6.36338 21.8569 5.80997 21.2381C5.26159 20.6093 4.84395 19.8798 4.60246 19.1201C4.35091 18.3403 4.26034 17.5253 4.3358 16.7002C4.49176 15.2009 5.19115 13.8376 6.303 12.8515C7.42993 11.8554 8.88391 11.3171 10.353 11.3523C11.8472 11.3724 13.2659 11.9611 14.3425 12.9974C15.4191 14.0238 16.0681 15.4072 16.1687 16.8913C16.229 17.7113 16.1134 18.5214 15.8266 19.3112C15.565 20.0659 15.1323 20.7652 14.5487 21.384C13.9651 21.9878 13.2859 22.4558 12.5313 22.7727C11.8018 23.0746 11.0421 23.2304 10.2673 23.2304ZM10.2322 12.4592C9.06 12.4592 7.92798 12.8917 7.0375 13.6816C6.13192 14.4815 5.56345 15.5985 5.43265 16.811C5.37227 17.4801 5.44267 18.1441 5.64894 18.7831C5.84515 19.4019 6.18724 19.9956 6.635 20.5088C7.08275 21.0068 7.62115 21.4091 8.2299 21.6909C8.83865 21.9676 9.4926 22.1135 10.1668 22.1286C10.8308 22.1387 11.4849 22.0181 12.1088 21.7565C12.7276 21.4999 13.281 21.1175 13.7539 20.6245C14.2268 20.1214 14.5789 19.5577 14.7952 18.944C15.0317 18.3 15.1273 17.641 15.077 16.9819C14.9965 15.7644 14.4683 14.6375 13.5878 13.7973C12.7074 12.9521 11.5553 12.4793 10.3379 12.4592C10.3026 12.4592 10.2674 12.4592 10.2322 12.4592Z" fill="#F3652B"/>
<path d="M28.8424 40.6025C27.9821 40.6025 27.1268 40.6025 26.2866 40.5924C24.6616 40.5824 23.0467 40.5824 21.4317 40.5924C19.8973 40.5975 18.3125 40.6024 16.7529 40.5873H16.2699C14.8261 40.5672 13.8852 40.2604 13.3016 39.6265C12.7331 39.0077 12.5118 38.087 12.6023 36.7236C12.6527 35.9992 12.7129 35.2697 12.7733 34.5452C12.879 33.2975 12.9846 32.0044 13.0299 30.7467C13.1154 28.855 13.8349 27.1949 15.1781 25.8164C15.6108 25.3737 16.1039 24.9561 16.6473 24.5687C20.662 21.7463 27.167 21.7213 31.1465 24.5135C31.7753 24.9662 32.2936 25.4089 32.7363 25.8668C34.0846 27.2805 34.8041 28.9608 34.8795 30.8675C34.9198 31.919 35.0103 32.9906 35.0958 34.032C35.1612 34.8521 35.2316 35.6973 35.2819 36.5374L35.3121 37.0607C35.3675 38.2228 35.126 39.0679 34.5877 39.6464C33.9991 40.2703 33.0885 40.5723 31.7201 40.5924H31.403C30.5528 40.6075 29.6976 40.6126 28.8424 40.6126V40.6025ZM23.7711 39.4806C24.6113 39.4806 25.4514 39.4806 26.2966 39.4907C27.9669 39.5007 29.6925 39.5058 31.393 39.4806H31.71C32.7413 39.4655 33.4205 39.2691 33.7827 38.8817C34.0745 38.5698 34.2204 38.072 34.2154 37.3626L34.2053 37.101C34.1601 36.1048 34.0796 35.0935 33.9941 34.1074C33.9085 33.056 33.8179 31.9692 33.7776 30.8926C33.7173 29.2374 33.1136 27.8389 31.9414 26.6113C31.549 26.2038 31.076 25.8064 30.5075 25.3939C26.8802 22.8532 20.9437 22.8782 17.2812 25.4541C16.7932 25.8012 16.3504 26.1736 15.963 26.571C14.8008 27.7684 14.1972 29.1468 14.1267 30.7769C14.0815 32.0598 13.9708 33.3627 13.8702 34.6255C13.8098 35.345 13.7494 36.0696 13.6991 36.789C13.6286 37.8304 13.7595 38.4895 14.1066 38.8719C14.4739 39.2693 15.1581 39.4604 16.2699 39.4755H16.7479C18.3075 39.4905 19.8872 39.4856 21.4217 39.4806C22.2015 39.4806 22.9812 39.4755 23.7661 39.4755L23.7711 39.4806Z" fill="#F3652B"/>
<path d="M24.0421 21.223C24.0018 21.223 23.9666 21.223 23.9264 21.223C23.0107 21.2079 22.1253 21.0067 21.2801 20.6244C20.4399 20.2319 19.6902 19.6735 19.1016 18.9994C18.4929 18.3152 18.0401 17.5251 17.7534 16.6497C17.4716 15.7642 17.376 14.8589 17.4666 13.9482C17.6326 12.3031 18.4074 10.7838 19.6551 9.67191C20.8977 8.5651 22.5026 7.96625 24.1578 8.00147C25.823 8.03166 27.4028 8.68059 28.6052 9.82766C29.541 10.7131 30.1849 11.8453 30.4767 13.088L30.5622 13.0074L30.6477 14.1696C30.7081 15.0701 30.5773 15.9756 30.2653 16.856C29.9333 17.7516 29.4504 18.5264 28.8215 19.1703C28.2077 19.8244 27.433 20.3577 26.5928 20.7098C25.7929 21.0469 24.9124 21.223 24.0421 21.223ZM24.027 9.10838C22.6837 9.10838 21.3907 9.6013 20.3896 10.4968C19.3482 11.4225 18.6991 12.6853 18.5633 14.0588C18.4878 14.8185 18.5633 15.5781 18.7997 16.3127C19.0362 17.0371 19.4185 17.6961 19.9317 18.2747C20.4197 18.8331 21.0436 19.3011 21.7378 19.6231C22.4372 19.94 23.1818 20.1062 23.9465 20.1213C24.7062 20.1313 25.4709 19.9903 26.1702 19.6985C26.8695 19.4067 27.5134 18.9641 28.0316 18.4157C28.5548 17.8774 28.9574 17.2334 29.2341 16.4888C29.4554 15.87 29.5661 15.231 29.5661 14.5921L29.5459 14.26C29.4554 12.8714 28.8517 11.5835 27.8506 10.6327C26.8494 9.67174 25.5363 9.13354 24.1477 9.10838C24.1125 9.10838 24.0773 9.10838 24.037 9.10838H24.027Z" fill="#F3652B"/>
</svg>
