<svg width="48" height="48" viewBox="0 0 48 48" fill="none" xmlns="http://www.w3.org/2000/svg">
<path d="M47.9999 24.0865H46.8697V15.9642C46.8697 15.1799 46.1835 14.4935 45.3991 14.4935H28.2157V13.3635H45.3991C46.8079 13.3635 47.9999 14.5555 47.9999 15.9642V24.0865Z" fill="#F3652B"/>
<path d="M45.3993 44.9646H2.59042C1.18685 44.9646 0 43.7725 0 42.3638V15.9642C0 14.5555 1.18685 13.3635 2.59042 13.3635H19.4642V14.4935H2.59042C1.81123 14.4935 1.13005 15.1799 1.13005 15.9642V42.3638C1.13005 43.1482 1.81639 43.8345 2.59042 43.8345H45.3993C46.1836 43.8345 46.8698 43.1482 46.8698 42.3638V29.164H48V42.3638C48 43.7725 46.808 44.9646 45.3993 44.9646Z" fill="#F3652B"/>
<path d="M21.8733 36.2955H6.95012V35.7332C6.95012 35.697 6.95003 34.7939 7.12032 34.1128L7.15131 33.9838L7.23912 33.8807C7.77578 33.2563 8.47236 32.7352 10.2887 32.0747C12.0535 31.4348 12.1825 30.9908 12.1825 30.3407C12.1825 30.2891 12.1773 30.2686 12.1773 30.2686C12.1722 30.2531 12.1309 30.2066 12.1051 30.1756C11.8832 29.9125 11.651 29.5977 11.5065 28.8649C11.1453 28.6688 10.9131 28.3542 10.8614 27.5698C10.8614 27.2293 10.9441 26.9711 11.0628 26.7905C11.0318 26.5583 10.9905 26.2126 10.9441 25.8978C10.877 25.3715 11.0628 24.5718 11.6201 23.9474C12.0381 23.4778 12.8275 22.9153 14.2414 22.9153C15.6553 22.9153 16.4448 23.4778 16.8628 23.9474C17.4046 24.5614 17.5956 25.3406 17.544 25.8515C17.544 26.1714 17.4821 26.548 17.4356 26.8112C17.5388 26.9763 17.6213 27.2086 17.6213 27.5388C17.5697 28.3748 17.3272 28.6896 16.9815 28.8702C16.8731 29.5565 16.6358 29.8713 16.4036 30.1293C16.3314 30.2084 16.2951 30.2822 16.2951 30.351C16.2951 31.0012 16.4242 31.4451 18.189 32.085C19.897 32.6268 20.6452 33.1996 21.2386 33.8911L21.2696 33.9324C21.734 34.5877 21.8268 35.5888 21.8372 35.6971L21.8888 36.3059L21.8733 36.2955ZM8.10083 35.1655H20.5833C20.5265 34.9591 20.4491 34.7476 20.3459 34.5928C19.9538 34.1387 19.4223 33.6587 17.8072 33.1427C16.1146 32.5287 15.1496 31.8784 15.1496 30.3407C15.1496 29.804 15.3818 29.546 15.5469 29.3603C15.6811 29.2106 15.7947 29.087 15.8566 28.6225C15.934 28.091 16.2693 27.9363 16.4138 27.8692C16.4293 27.8227 16.4603 27.7142 16.4758 27.4872C16.4758 27.4769 16.4758 27.4718 16.4758 27.4615L16.1506 27.3531L16.2591 26.8575C16.3004 26.6769 16.3984 26.1405 16.3984 25.8051V25.7378C16.4191 25.6037 16.3829 25.1134 16.0011 24.6851C15.6192 24.2517 15.0206 24.0351 14.2259 24.0351C13.4312 24.0351 12.8327 24.2568 12.4508 24.6851C12.069 25.1134 12.0328 25.6037 12.0483 25.7378C12.1257 26.2796 12.2031 26.9092 12.2031 26.9092L12.26 27.3685L11.9761 27.4615C11.9761 27.4615 11.9761 27.4974 11.9761 27.5232C11.9916 27.7245 12.0173 27.8227 12.0328 27.8692C12.2186 27.9569 12.5231 28.1219 12.5902 28.6172C12.6882 29.1384 12.8223 29.2933 12.9462 29.4429C13.0958 29.6184 13.2972 29.8556 13.2972 30.3407C13.2972 31.8784 12.3322 32.5288 10.6603 33.1377C9.05544 33.7208 8.51875 34.1387 8.17302 34.5154C8.13173 34.727 8.10598 34.9644 8.0905 35.1708L8.10083 35.1655Z" fill="#F3652B"/>
<path d="M40.8735 26.0267H27.2042V27.1567H40.8735V26.0267Z" fill="#F3652B"/>
<path d="M40.8735 31.8832H27.2042V33.0133H40.8735V31.8832Z" fill="#F3652B"/>
<path d="M27.5134 17.7033H20.4853C19.9332 17.7033 19.4533 17.2182 19.4533 16.6712V5.34454C19.4533 4.80272 19.9487 4.3125 20.4853 4.3125H27.5134C28.0656 4.3125 28.5454 4.79756 28.5454 5.34454V16.6712C28.5454 17.2595 28.1017 17.7033 27.5134 17.7033ZM20.5782 16.5732H27.4154V5.43751H20.5782V16.5732Z" fill="#F3652B"/>
<path d="M23.9999 10.9071C22.8698 10.9071 21.9564 9.98865 21.9564 8.85341C21.9564 7.71817 22.875 6.81 23.9999 6.81C25.1248 6.81 26.0485 7.72849 26.0485 8.85341C26.0485 9.97833 25.13 10.9071 23.9999 10.9071ZM23.9999 7.94005C23.4942 7.94005 23.0814 8.35287 23.0814 8.85341C23.0814 9.35395 23.4942 9.7771 23.9999 9.7771C24.5056 9.7771 24.9235 9.36427 24.9235 8.85341C24.9235 8.34255 24.5108 7.94005 23.9999 7.94005Z" fill="#F3652B"/>
</svg>
