<svg width="48" height="48" viewBox="0 0 48 48" fill="none" xmlns="http://www.w3.org/2000/svg">
<path fill-rule="evenodd" clip-rule="evenodd" d="M7.26862 5.28755C6.14563 5.28755 5.22505 6.20813 5.22505 7.33112V40.6704C5.22505 41.7934 6.14563 42.714 7.26862 42.714H40.7314C41.8544 42.714 42.775 41.7934 42.775 40.6704V7.33112C42.775 6.20813 41.8544 5.28755 40.7314 5.28755H30.8472V20.5518L24.0609 15.8739L17.2151 20.5474V5.28755H7.26862ZM18.0671 5.28755V18.9341L24.0632 14.8407L29.9952 18.9297V5.28755H18.0671ZM4.37305 7.33112C4.37305 5.73758 5.67508 4.43555 7.26862 4.43555H40.7314C42.3249 4.43555 43.627 5.73758 43.627 7.33112V40.6704C43.627 42.264 42.3249 43.566 40.7314 43.566H7.26862C5.67508 43.566 4.37305 42.264 4.37305 40.6704V7.33112Z" fill="#F3652B"/>
</svg>
