<svg width="48" height="48" viewBox="0 0 48 48" fill="none" xmlns="http://www.w3.org/2000/svg">
<path d="M24 47.9951C10.7701 47.9951 0 37.2299 0 24C0 10.7701 10.765 0 24 0C37.235 0 48 10.765 48 24C48 37.235 37.235 47.9951 24 47.9951ZM24 1.10163C11.3737 1.10163 1.10666 11.3737 1.10666 24C1.10666 36.6263 11.3787 46.8935 24 46.8935C36.6213 46.8935 46.8933 36.6213 46.8933 24C46.8933 11.3787 36.6213 1.10163 24 1.10163Z" fill="#F3652B"/>
<path d="M25.0313 41.2038H23.6076C22.9285 41.2038 22.3752 40.6554 22.3752 39.9814V37.7128C22.3752 37.6524 22.3249 37.5971 22.2545 37.587C19.8701 37.2299 17.9887 36.3194 16.6557 34.8707C15.3377 33.437 14.6133 31.5859 14.4875 29.3775C14.4674 29.0455 14.5882 28.7336 14.8196 28.4871C15.051 28.2406 15.3779 28.0998 15.715 28.0998H20.2775C20.9214 28.0998 21.4496 28.5827 21.505 29.2215C21.5754 30.132 21.8219 30.8413 22.2394 31.3393C22.7122 31.9077 23.3964 32.1843 24.3321 32.1843C24.9709 32.1843 25.4538 32.0032 25.811 31.636C26.1681 31.2587 26.3442 30.7407 26.3442 30.0616C26.3442 29.2819 26.1581 28.6781 25.7959 28.2756C25.3935 27.8078 24.659 27.3552 23.5926 26.9276C22.4507 26.4648 21.3692 25.9819 20.3782 25.4939C19.357 24.9859 18.4717 24.3972 17.7473 23.7382C16.9877 23.0541 16.3991 22.2492 16.0017 21.3588C15.5942 20.4483 15.393 19.3871 15.393 18.1144C15.393 15.9966 16.1224 14.2207 17.5611 12.8374C18.8589 11.5949 20.5542 10.8152 22.6066 10.5285C22.672 10.5184 22.7324 10.4631 22.7324 10.4027V7.98309C22.7324 7.30902 23.2807 6.76062 23.9598 6.76062H25.3884C26.0625 6.76062 26.6158 7.30902 26.6158 7.98309V10.5084C26.6158 10.5738 26.6812 10.6242 26.7416 10.6393C28.7135 11.0367 30.3232 11.952 31.5204 13.3606C32.6774 14.7238 33.3264 16.4343 33.4572 18.4364C33.4824 18.7734 33.3616 19.1205 33.1302 19.372C32.8988 19.6235 32.5718 19.7642 32.2348 19.7642H27.6672C27.0233 19.7642 26.4951 19.2813 26.4398 18.6425C26.3794 17.8175 26.1882 17.1737 25.8663 16.731C25.5041 16.223 24.9961 15.9765 24.3169 15.9765C23.7032 15.9765 23.2505 16.1524 22.9286 16.5146C22.5965 16.8919 22.4305 17.4403 22.4305 18.1547C22.4305 18.869 22.6267 19.4322 23.0091 19.8396C23.4316 20.2823 24.166 20.7301 25.1922 21.1677C26.4398 21.701 27.4308 22.1637 28.3111 22.6265C29.3172 23.1446 30.1975 23.7433 30.9219 24.3972C31.6764 25.0763 32.26 25.851 32.7026 26.7665C33.1353 27.667 33.3515 28.7687 33.3515 30.0414C33.3515 32.1844 32.6573 33.9601 31.2891 35.3233C30.0466 36.5558 28.4016 37.3255 26.3945 37.6172C26.319 37.6273 26.2687 37.6776 26.2687 37.743V39.9865C26.2687 40.6606 25.7154 41.209 25.0363 41.209L25.0313 41.2038ZM15.72 29.2014C15.6697 29.2014 15.6395 29.2316 15.6244 29.2417C15.6093 29.2568 15.5943 29.2817 15.5943 29.3119C15.6999 31.2587 16.3337 32.8785 17.4706 34.121C18.6276 35.3786 20.2926 36.1786 22.4154 36.4955C23.0292 36.586 23.4718 37.0989 23.4718 37.7076V39.9765C23.4718 40.0419 23.5322 40.1022 23.5976 40.1022H25.0212C25.0916 40.1022 25.147 40.0469 25.147 39.9765V37.7329C25.147 37.1242 25.6098 36.6011 26.2235 36.5156C27.9841 36.2591 29.4228 35.59 30.4893 34.5337C31.6412 33.3867 32.2297 31.8675 32.2297 30.0314C32.2297 28.9247 32.0487 27.984 31.6915 27.2344C31.3092 26.4497 30.8112 25.7857 30.1623 25.2021C29.5083 24.6085 28.7085 24.0704 27.7829 23.5926C26.9277 23.1448 25.9619 22.6921 24.7395 22.1689C23.5624 21.6659 22.7324 21.1477 22.1941 20.5893C21.6056 19.9706 21.3088 19.1507 21.3088 18.1446C21.3088 17.1385 21.5704 16.3537 22.0835 15.7701C22.6167 15.1665 23.3612 14.8596 24.2968 14.8596C25.328 14.8596 26.1731 15.2821 26.7416 16.0769C27.1842 16.6906 27.4458 17.5207 27.5163 18.5469C27.5163 18.6023 27.5766 18.6525 27.6471 18.6525H32.2146C32.2599 18.6525 32.2851 18.6324 32.3052 18.6123C32.3253 18.5921 32.3454 18.5569 32.3404 18.5066C32.2247 16.741 31.6613 15.247 30.6653 14.0699C29.624 12.8375 28.2608 12.0677 26.5001 11.7156C25.9065 11.5848 25.4991 11.0869 25.4991 10.5084V7.98309C25.4991 7.9177 25.4437 7.85733 25.3784 7.85733H23.9497C23.8843 7.85733 23.829 7.91267 23.829 7.98309V10.4027C23.829 11.0014 23.3712 11.5246 22.7626 11.6151C20.9416 11.8717 19.4475 12.5507 18.3257 13.6322C17.0983 14.8144 16.4997 16.2833 16.4997 18.1144C16.4997 19.211 16.6707 20.1516 17.0078 20.9062C17.3448 21.6657 17.8328 22.3247 18.4867 22.9183C19.1357 23.5069 19.9405 24.04 20.8711 24.5028C21.837 24.9757 22.8934 25.4486 24.0101 25.9063C25.2526 26.4094 26.1078 26.9476 26.6259 27.5513C27.1692 28.16 27.4458 29.0153 27.4458 30.0817H27.4408C27.4408 31.0325 27.1541 31.8122 26.6008 32.3957C26.0323 32.9843 25.2677 33.281 24.327 33.281C23.0644 33.281 22.0734 32.8635 21.3893 32.0435C20.8208 31.3644 20.4888 30.4489 20.4033 29.307C20.3983 29.2466 20.3429 29.1962 20.2725 29.1962H15.7099L15.72 29.2014Z" fill="#F3652B"/>
</svg>
