<svg width="48" height="48" viewBox="0 0 48 48" fill="none" xmlns="http://www.w3.org/2000/svg">
<mask id="mask0_2_11" style="mask-type:luminance" maskUnits="userSpaceOnUse" x="0" y="0" width="48" height="48">
<path d="M47.9999 0H0V48H47.9999V0Z" fill="white"/>
</mask>
<g mask="url(#mask0_2_11)">
<path d="M24.0009 48.0559C10.7397 48.0559 -0.0496368 37.2665 -0.0496368 24.0053C-0.0496368 10.744 10.7397 -0.0453033 24.0009 -0.0453033C37.2622 -0.0453033 48.0515 10.744 48.0515 24.0053C48.0515 37.2665 37.2622 48.0559 24.0009 48.0559ZM24.0009 1.05905C11.3475 1.05905 1.05966 11.3517 1.05966 24.0001C1.05966 36.6484 11.3526 46.9414 24.0009 46.9414C36.6493 46.9414 46.9422 36.6484 46.9422 24.0001C46.9422 11.3517 36.6493 1.05905 24.0009 1.05905Z" fill="#F3652B"/>
<path d="M23.9652 48.0559C17.1522 48.0559 10.6279 45.1332 6.06394 40.0323L5.58275 39.4954L6.22607 39.1711C7.82167 38.3657 9.71105 37.5604 11.8436 36.7804C17.2231 34.8251 18.7782 33.2951 18.7782 29.9519C18.7782 29.1719 18.5451 28.9085 18.1197 28.4323C17.5574 27.7991 16.7824 26.9281 16.3518 24.5828C16.286 24.2181 16.2049 24.1775 15.901 24.0357C15.1412 23.671 14.4472 23.144 14.2649 20.7177C14.2649 19.5121 14.6954 18.8739 15.0348 18.5548C14.9133 17.8557 14.6448 16.2248 14.5131 14.8875C14.3763 13.3932 14.9386 11.1189 16.5038 9.40684C18.2058 7.5377 20.7232 6.59044 23.9803 6.59044C27.2374 6.59044 29.7549 7.53758 31.4619 9.41179C33.0271 11.129 33.5844 13.3983 33.4425 14.8875C33.326 16.2349 33.0525 17.8557 32.9258 18.5548C33.2652 18.8688 33.6958 19.4971 33.6958 20.6774C33.5084 23.129 32.8144 23.6558 32.0597 24.0256C31.7608 24.1674 31.6747 24.2129 31.6038 24.5877C31.1732 26.9229 30.3982 27.7942 29.836 28.4274C29.4105 28.9086 29.1724 29.1771 29.1724 29.9571C29.1724 33.3003 30.7275 34.8301 36.112 36.7853C38.3104 37.5755 40.2049 38.3809 41.7295 39.1812L42.3627 39.5104L41.8866 40.0425C37.3227 45.1433 30.7883 48.066 23.9499 48.066L23.9652 48.0559ZM7.39107 39.8295C11.7119 44.363 17.7144 46.9466 23.9652 46.9466C30.2159 46.9466 36.2589 44.3581 40.5797 39.8246C39.2171 39.1559 37.5962 38.4822 35.7473 37.8187C29.9373 35.7115 28.0783 33.7967 28.0783 29.947C28.0783 28.7465 28.5342 28.2297 29.0204 27.6826C29.5523 27.0849 30.15 26.4063 30.5248 24.375C30.692 23.4481 31.2087 23.1948 31.5886 23.0125C32.009 22.8099 32.4497 22.597 32.6017 20.6215C32.6017 19.5831 32.1052 19.2944 32.1002 19.2893L31.7001 19.112L31.7811 18.6814C31.7811 18.6814 32.1964 16.4526 32.3433 14.776C32.4294 13.8439 32.1711 11.828 30.6464 10.1513C29.1622 8.52025 26.9183 7.68959 23.9854 7.68959C21.0525 7.68959 18.8136 8.51518 17.3295 10.1412C15.7997 11.8178 15.5363 13.839 15.6224 14.771C15.7845 16.4376 16.1847 18.6613 16.1898 18.6866L16.2657 19.112L15.8706 19.2893C15.8706 19.2893 15.3742 19.573 15.3742 20.6621C15.5211 22.6072 15.9618 22.82 16.3822 23.0226C16.757 23.205 17.2737 23.4531 17.4409 24.375C17.8157 26.4164 18.4438 27.1205 18.9504 27.6878C19.4316 28.2298 19.8875 28.7415 19.8875 29.942C19.8875 33.7918 18.0234 35.7063 12.2235 37.8135C10.4253 38.472 8.79926 39.1509 7.39107 39.8246V39.8295Z" fill="#F3652B"/>
</g>
</svg>
