<svg width="50" height="50" viewBox="0 0 50 50" fill="none" xmlns="http://www.w3.org/2000/svg">
<g clip-path="url(#clip0_2963_5026)">
<path d="M49 28.6V21.4L43.47 20.62C43 18.62 42.21 16.74 41.16 15.04L44.52 10.57L39.43 5.48L34.96 8.84C33.26 7.79 31.39 7 29.38 6.53L28.6 1H21.4L20.62 6.53C18.62 7 16.74 7.79 15.04 8.84L10.57 5.48L5.48 10.57L8.84 15.04C7.79 16.74 7 18.61 6.53 20.62L1 21.4V28.6L6.53 29.38C7 31.38 7.79 33.26 8.84 34.96L5.48 39.43L10.57 44.52L15.04 41.16C16.74 42.21 18.61 43 20.62 43.47L21.4 49H28.6L29.38 43.47C31.38 43 33.26 42.21 34.96 41.16L39.43 44.52L44.52 39.43L41.16 34.96C42.21 33.26 43 31.39 43.47 29.38L49 28.6V28.6Z" stroke="#F3652B" stroke-linecap="round" stroke-linejoin="round"/>
<path d="M14.62 31C13.6 29.23 13 27.19 13 25C13 18.37 18.37 13 25 13C28.7916 13 32.171 14.7562 34.3697 17.5" stroke="#F3652B" stroke-miterlimit="10" stroke-linecap="round"/>
<path d="M26.4096 26.5907C25.6396 26.5907 24.8696 26.3007 24.2896 25.7107C23.1196 24.5407 23.1196 22.6407 24.2896 21.4707L31.8296 13.9307C32.9996 12.7607 37.2396 17.0007 36.0696 18.1707L28.5296 25.7107C27.9396 26.3007 27.1796 26.5907 26.4096 26.5907Z" fill="white"/>
<path d="M26.4102 23.5891L33.9602 16.0391" stroke="#F3652B" stroke-linecap="round" stroke-linejoin="round"/>
<path d="M25 27C26.1046 27 27 26.1046 27 25C27 23.8954 26.1046 23 25 23C23.8954 23 23 23.8954 23 25C23 26.1046 23.8954 27 25 27Z" stroke="#F3652B" stroke-miterlimit="10"/>
</g>
<defs>
<clipPath id="clip0_2963_5026">
<rect width="50" height="50" fill="white"/>
</clipPath>
</defs>
</svg>
