<svg width="48" height="48" viewBox="0 0 48 48" fill="none" xmlns="http://www.w3.org/2000/svg">
<g clip-path="url(#clip0_2801_6261)">
<path fill-rule="evenodd" clip-rule="evenodd" d="M4.86725 7.98185C5.41182 7.75603 6.00855 7.63164 6.63309 7.63164C7.25762 7.63164 7.85435 7.75603 8.39892 7.98185L8.85801 8.17223L8.47726 9.09041L8.01817 8.90004C7.59218 8.72338 7.12467 8.62564 6.63309 8.62564C6.1415 8.62564 5.674 8.72338 5.24801 8.90004L4.78892 9.09041L4.40816 8.17223L4.86725 7.98185ZM10.7052 10.0195L10.8956 10.4785C11.1214 11.0231 11.2458 11.6198 11.2458 12.2444C11.2458 12.8689 11.1214 13.4656 10.8956 14.0102L10.7052 14.4693L9.78706 14.0886L9.97744 13.6295C10.1541 13.2035 10.2518 12.736 10.2518 12.2444C10.2518 11.7528 10.1541 11.2853 9.97743 10.8593L9.78706 10.4002L10.7052 10.0195ZM3.47912 10.4002L3.28874 10.8593C3.11209 11.2853 3.01434 11.7528 3.01434 12.2444C3.01434 12.736 3.11209 13.2035 3.28874 13.6295L3.47912 14.0886L2.56094 14.4693L2.37056 14.0102C2.14473 13.4656 2.02034 12.8689 2.02034 12.2444C2.02034 11.6198 2.14473 11.0231 2.37056 10.4785L2.56094 10.0195L3.47912 10.4002ZM4.78892 15.3984L5.24801 15.5887C5.674 15.7654 6.1415 15.8631 6.63309 15.8631C7.12467 15.8631 7.59218 15.7654 8.01817 15.5887L8.47726 15.3984L8.85801 16.3165L8.39892 16.5069C7.85435 16.7327 7.25762 16.8571 6.63309 16.8571C6.00855 16.8571 5.41182 16.7327 4.86725 16.5069L4.40816 16.3165L4.78892 15.3984Z" fill="#F3652B"/>
<path fill-rule="evenodd" clip-rule="evenodd" d="M26.3471 6.30343L27.3454 10.4635L26.3788 10.6954L25.8961 8.6838L25.3251 9.50075L24.5103 8.93131L26.3471 6.30343ZM24.0562 11.3161L21.6485 14.761L20.8337 14.1915L23.2415 10.7467L24.0562 11.3161ZM28.3625 14.7021L29.2189 18.2712L28.2524 18.5031L27.3959 14.934L28.3625 14.7021ZM20.3796 16.5764L18.891 18.7061L18.0763 18.1367L19.5649 16.0069L20.3796 16.5764ZM11.3895 16.4407L13.4057 18.3717L12.7182 19.0895L11.6728 18.0883L10.5797 20.2592L9.6919 19.8121L11.3895 16.4407ZM15.0315 19.9288L16.1519 21.0019L16.6454 20.3254L17.4485 20.9112L16.2852 22.5059L14.344 20.6467L15.0315 19.9288ZM8.68309 24.0258L7.65055 26.0764H9.85083V27.0704H6.03715L7.79529 23.5788L8.68309 24.0258ZM13.8768 26.0764H17.3808V27.0704H13.8768V26.0764Z" fill="#F3652B"/>
<path fill-rule="evenodd" clip-rule="evenodd" d="M23.63 22.9546C21.6314 22.9546 20.0112 24.5747 20.0112 26.5733C20.0112 28.5719 21.6314 30.1921 23.63 30.1921C25.6285 30.1921 27.2487 28.5719 27.2487 26.5733C27.2487 24.5747 25.6285 22.9546 23.63 22.9546ZM19.0172 26.5733C19.0172 24.0258 21.0824 21.9606 23.63 21.9606C26.1775 21.9606 28.2427 24.0258 28.2427 26.5733C28.2427 29.1209 26.1775 31.1861 23.63 31.1861C21.0824 31.1861 19.0172 29.1209 19.0172 26.5733Z" fill="#F3652B"/>
<path fill-rule="evenodd" clip-rule="evenodd" d="M43.34 20.6345L48.4413 41.3994H23.0357L28.3881 30.7696L33.1407 35.3215L43.34 20.6345ZM42.9002 23.0106L33.2935 36.8441L28.6713 32.4173L24.6491 40.4054H47.1736L42.9002 23.0106Z" fill="#F3652B"/>
<path fill-rule="evenodd" clip-rule="evenodd" d="M-0.249023 4.33203H33.5473V17.8848H50.2492V43.6677H16.4529V30.1149H-0.249023V4.33203ZM16.4529 29.1209V17.8848H32.5533V5.32603H0.744977V29.1209H16.4529ZM17.4469 18.8788V42.6737H49.2552V18.8788H17.4469Z" fill="#F3652B"/>
</g>
<defs>
<clipPath id="clip0_2801_6261">
<rect width="56" height="56" fill="white" transform="translate(-3 -4)"/>
</clipPath>
</defs>
</svg>
