<svg width="48" height="48" viewBox="0 0 48 48" fill="none" xmlns="http://www.w3.org/2000/svg">
<path fill-rule="evenodd" clip-rule="evenodd" d="M6.7738 2.38379H20.894V12.66H14.2632L14.2631 16.5277L20.6311 23.5866L34.595 23.5866V35.3388H41.2258V45.615H27.1056V35.3388H33.743V24.4386L20.631 24.4386L14.2631 31.491L14.2632 35.3388H20.894V45.615H6.7738V35.3388H13.4112L13.4111 31.491L6.65869 24.0128L13.4111 16.5277L13.4112 12.66H6.7738V2.38379ZM13.8371 17.3275L7.80638 24.0125L13.8371 30.6915L19.8678 24.0125L13.8371 17.3275ZM7.6258 3.23579V11.808H20.042V3.23579H7.6258ZM7.6258 36.1908V44.763H20.042V36.1908H7.6258ZM27.9576 36.1908V44.763H40.3738V36.1908H27.9576Z" fill="#F3652B"/>
</svg>
