<svg width="48" height="48" viewBox="0 0 48 48" fill="none" xmlns="http://www.w3.org/2000/svg">
<g clip-path="url(#clip0_2801_6280)">
<path fill-rule="evenodd" clip-rule="evenodd" d="M25.6999 0.487164C24.0414 0.487164 22.6969 1.83165 22.6969 3.49016C22.6969 5.14868 24.0414 6.49316 25.6999 6.49316C27.3584 6.49316 28.7029 5.14868 28.7029 3.49016C28.7029 1.83165 27.3584 0.487164 25.6999 0.487164ZM21.7029 3.49016C21.7029 1.28268 23.4924 -0.506836 25.6999 -0.506836C27.9074 -0.506836 29.6969 1.28268 29.6969 3.49016C29.6969 5.52935 28.1699 7.21187 26.1969 7.45657V13.2943L43.4029 30.5003V17.7002H44.3969V32.1972H29.8999V31.2032H42.7001L26.1969 14.7V49.4003L35.1485 40.4487L35.8514 41.1516L25.6999 51.303L15.5485 41.1516L16.2514 40.4487L25.2029 49.4003V14.7L8.69979 31.2032H21.4999V32.1972H7.00293V17.7002H7.99693V30.5003L25.2029 13.2943V7.45657C23.23 7.21187 21.7029 5.52935 21.7029 3.49016Z" fill="#F3652B"/>
</g>
<defs>
<clipPath id="clip0_2801_6280">
<rect width="56" height="56" fill="white" transform="translate(-3 -4)"/>
</clipPath>
</defs>
</svg>
