<svg width="48" height="48" viewBox="0 0 48 48" fill="none" xmlns="http://www.w3.org/2000/svg">
<path fill-rule="evenodd" clip-rule="evenodd" d="M23.6508 11.559V6.10791H24.5028V11.559H36.8442C38.2101 11.559 39.2877 12.7169 39.2877 14.1V14.1534L36.2493 26.0892C36.125 26.6175 35.873 27.2084 35.4854 27.6771C35.0939 28.1505 34.5355 28.529 33.8179 28.529H14.2628C13.8885 28.529 13.5594 28.4398 13.2736 28.2854L14.1712 31.8327C14.1712 31.8328 14.1714 31.8335 13.7584 31.938L14.1712 31.8327L14.1802 31.8684L14.1826 31.8982C14.1827 31.8989 14.1828 31.8997 14.183 31.9008C14.184 31.9076 14.1864 31.9219 14.1913 31.9428C14.2011 31.9845 14.2207 32.052 14.2583 32.1371C14.3328 32.3057 14.4809 32.5498 14.7762 32.8027C15.3658 33.3078 16.5924 33.8884 19.1182 33.8884H33.981L33.9819 34.7404H19.1182C16.4726 34.7404 15.0193 34.1328 14.2219 33.4497C13.8236 33.1085 13.6014 32.7585 13.479 32.4815C13.4182 32.3438 13.3826 32.2257 13.3619 32.1375C13.3515 32.0933 13.3449 32.0566 13.3406 32.0286C13.34 32.0244 13.3394 32.0203 13.3388 32.0165L11.9006 26.3327C11.8767 26.2544 11.8543 26.1757 11.8335 26.0969L11.8319 26.0909L11.3784 24.2689L10.9611 22.6198C9.70391 17.6521 8.3169 12.1716 7.79734 10.1205C7.47256 8.82675 6.85374 8.27007 6.36611 8.02009C6.11435 7.89103 5.88174 7.83552 5.7144 7.81223C5.63096 7.80062 5.56479 7.79717 5.5221 7.79643C5.5008 7.79607 5.48551 7.79638 5.47702 7.79667L5.47002 7.79696L5.45617 7.79807H2.40088V6.94607H5.42661C5.43274 6.94575 5.43998 6.94543 5.44829 6.94515C5.47041 6.9444 5.5002 6.94393 5.53677 6.94456C5.60983 6.94582 5.71058 6.95149 5.83184 6.96836C6.07394 7.00206 6.40191 7.08101 6.75479 7.26191C7.47637 7.63182 8.24318 8.39778 8.62336 9.91163C8.78176 10.537 9.02075 11.4809 9.31208 12.6318C9.75214 11.9875 10.4744 11.559 11.3034 11.559H23.6508ZM23.6508 12.411H11.3034C10.461 12.411 9.73767 13.1288 9.71257 14.0505L12.2047 24.0615L12.7212 26.1025C12.8596 26.5486 13.0436 26.9274 13.2756 27.2003C13.5344 27.5049 13.8497 27.677 14.2628 27.677H33.8179C34.2064 27.677 34.5443 27.4781 34.8288 27.1341C35.1162 26.7866 35.3198 26.3218 35.4207 25.8908L35.4225 25.8829L38.435 14.0494C38.4095 13.1233 37.6871 12.411 36.8442 12.411H24.5028V22.049L29.0018 17.5547L29.6039 18.1574L24.0706 23.6852L18.6407 18.2545L19.2432 17.6521L23.6508 22.0604V12.411ZM18.9055 37.9251C17.5668 37.9251 16.4814 39.0105 16.4814 40.3495C16.4814 41.6885 17.5668 42.7739 18.9055 42.7739C20.2442 42.7739 21.3295 41.6885 21.3295 40.3495C21.3295 39.0105 20.2442 37.9251 18.9055 37.9251ZM15.6294 40.3495C15.6294 38.54 17.0961 37.0731 18.9055 37.0731C20.7148 37.0731 22.1815 38.54 22.1815 40.3495C22.1815 42.159 20.7148 43.6259 18.9055 43.6259C17.0961 43.6259 15.6294 42.159 15.6294 40.3495ZM28.6527 37.9251C27.314 37.9251 26.2286 39.0105 26.2286 40.3495C26.2286 41.6885 27.314 42.7739 28.6527 42.7739C29.9914 42.7739 31.0767 41.6885 31.0767 40.3495C31.0767 39.0105 29.9914 37.9251 28.6527 37.9251ZM25.3766 40.3495C25.3766 38.54 26.8433 37.0731 28.6527 37.0731C30.462 37.0731 31.9287 38.54 31.9287 40.3495C31.9287 42.159 30.462 43.6259 28.6527 43.6259C26.8433 43.6259 25.3766 42.159 25.3766 40.3495Z" fill="#F3652B"/>
</svg>
