<svg width="48" height="48" viewBox="0 0 48 48" fill="none" xmlns="http://www.w3.org/2000/svg">
<path fill-rule="evenodd" clip-rule="evenodd" d="M12.2942 23.5822H3.23949C3.24115 23.4982 3.24331 23.4143 3.24596 23.3305C3.39777 18.5413 5.17279 14.1676 8.0394 10.7238C9.70007 11.7072 11.6676 12.535 13.8586 13.1645C12.896 16.2401 12.3328 19.7949 12.2942 23.5822ZM14.1197 12.3703C12.0354 11.7737 10.1679 10.9957 8.59224 10.0795C10.078 8.43604 11.8231 7.03138 13.7629 5.93006C15.6367 4.90294 17.9567 4.00552 20.1254 3.59622C18.394 4.70614 16.8709 6.53078 15.6479 8.82529C15.0739 9.90227 14.5612 11.0904 14.1197 12.3703ZM13.4871 5.12637C7.02771 8.73205 2.61058 15.5576 2.40723 23.4316C2.40236 23.6205 2.3999 23.8099 2.3999 23.9999C2.3999 24.1863 2.40226 24.3721 2.40696 24.5574C2.70266 36.2291 12.2569 45.5999 23.9999 45.5999C28.3582 45.5999 32.415 44.3091 35.8089 42.0889C40.9477 38.6903 44.6396 33.0935 45.4345 26.6864C45.4831 26.2577 45.546 25.5992 45.5691 25.1633C45.5896 24.7781 45.5999 24.3902 45.5999 23.9999C45.5999 23.6737 45.5927 23.3492 45.5784 23.0265C45.4244 19.556 44.4516 16.2984 42.8483 13.4423L42.0842 13.7962C43.5921 16.4597 44.5281 19.4866 44.7254 22.7154C44.7429 23.0028 44.7546 23.2917 44.7603 23.5822H35.7057C35.667 19.7949 35.1038 16.2401 34.1412 13.1645C36.3322 12.535 38.2997 11.7072 39.9604 10.7238C40.6872 11.5969 41.5064 12.8119 42.0842 13.7962L42.8483 13.4423C41.3279 10.8451 39.0864 8.25495 36.6589 6.49626C33.1323 3.99191 28.6546 2.3999 23.9999 2.3999C20.2958 2.3999 16.5338 3.48355 13.4871 5.12637ZM39.4076 37.9203C38.2272 39.2259 36.7657 40.4577 35.2904 41.4295C33.074 42.8682 30.566 43.8956 27.8744 44.4036C29.6057 43.2937 31.1289 41.469 32.3519 39.1745C32.9259 38.0975 33.4386 36.9094 33.8801 35.6295C35.9644 36.2261 37.8319 37.0041 39.4076 37.9203ZM36.0769 7.10678C37.2914 7.97654 38.4081 8.974 39.4076 10.0795C37.8319 10.9957 35.9644 11.7737 33.8801 12.3703C33.4386 11.0904 32.9259 9.90227 32.3519 8.82529C31.1289 6.53078 29.6057 4.70614 27.8744 3.59622C30.8057 4.14944 33.7207 5.46117 36.0769 7.10678ZM44.7374 25.0684C44.7137 25.5367 44.6464 26.2269 44.5921 26.6864C44.0751 30.6858 42.4193 34.3274 39.9607 37.2761C38.2999 36.2927 36.3324 35.4648 34.1412 34.8353C35.1038 31.7597 35.667 28.2049 35.7057 24.4176H44.7603C44.756 24.6354 44.7484 24.8524 44.7374 25.0684ZM16.3852 9.21826C18.3997 5.43866 21.1117 3.23537 23.9999 3.23537C26.8881 3.23537 29.6001 5.43866 31.6146 9.21827C32.1592 10.24 32.6483 11.3698 33.0719 12.5896C30.3348 13.293 27.2584 13.69 23.9999 13.69C20.7414 13.69 17.665 13.293 14.9279 12.5896C15.3515 11.3698 15.8406 10.24 16.3852 9.21826ZM23.9999 14.5255C27.3394 14.5255 30.5065 14.1167 33.3346 13.3847C34.2745 16.3762 34.8313 19.8559 34.8701 23.5822H13.1297C13.1685 19.8559 13.7253 16.3762 14.6652 13.3847C17.4933 14.1167 20.6604 14.5255 23.9999 14.5255ZM13.1297 24.4176H34.8701C34.8313 28.1439 34.2745 31.6235 33.3346 34.6151C30.5065 33.8831 27.3394 33.4743 23.9999 33.4743C20.6604 33.4743 17.4933 33.8831 14.6652 34.6151C13.7253 31.6235 13.1685 28.1439 13.1297 24.4176ZM23.9999 34.3097C27.2584 34.3097 30.3348 34.7068 33.0719 35.4102C32.6483 36.63 32.1592 37.7598 31.6146 38.7815C29.6001 42.5611 26.8881 44.7644 23.9999 44.7644C21.1117 44.7644 18.3997 42.5611 16.3852 38.7815C15.8406 37.7598 15.3515 36.63 14.9279 35.4102C17.665 34.7068 20.7414 34.3097 23.9999 34.3097ZM15.6479 39.1745C16.8709 41.469 18.3941 43.2937 20.1254 44.4036C15.5862 43.5469 11.5689 41.2129 8.59224 37.9203C10.1679 37.0041 12.0354 36.2261 14.1197 35.6295C14.5612 36.9094 15.0739 38.0975 15.6479 39.1745ZM13.8586 34.8353C11.6676 35.4648 9.70007 36.2926 8.0394 37.276C5.17811 33.8386 3.40437 29.4747 3.24682 24.696C3.24377 24.6034 3.24133 24.5106 3.23949 24.4176H12.2942C12.3328 28.2049 12.896 31.7597 13.8586 34.8353Z" fill="#F3652B"/>
</svg>
