<svg width="48" height="48" viewBox="0 0 48 48" fill="none" xmlns="http://www.w3.org/2000/svg">
<path fill-rule="evenodd" clip-rule="evenodd" d="M11.1113 15.2231C11.1113 8.13805 16.9231 2.37793 24.0882 2.37793C31.2532 2.37793 37.065 8.13805 37.065 15.2231V19.6244L40.1368 19.6247V45.6223H7.86377V19.6247L11.1113 19.6244V15.2231ZM24.0882 3.22993C17.3858 3.22993 11.9633 8.61638 11.9633 15.2231V20.4764L8.71577 20.4766V44.7703H39.2848V20.4766L36.213 20.4764V15.2231C36.213 8.61638 30.7905 3.22993 24.0882 3.22993ZM13.9596 15.2231C13.9596 9.71081 18.4994 5.25643 24.0879 5.25643C29.6764 5.25643 34.2162 9.71081 34.2162 15.2231L34.2165 20.4767H13.9596V15.2231ZM24.0879 6.10843C18.9564 6.10843 14.8116 10.1948 14.8116 15.2231V19.6247H33.3644L33.3642 15.2231C33.3642 10.1948 29.2194 6.10843 24.0879 6.10843ZM20.5024 29.4855C20.5024 27.5866 22.0496 25.9876 24.0003 25.9876C25.8992 25.9876 27.4982 27.5348 27.4982 29.4855C27.4982 30.5834 26.9954 31.5524 26.2265 32.203L27.7273 39.4344H20.23L21.7306 32.1587C20.9624 31.5037 20.5024 30.5353 20.5024 29.4855ZM24.0003 26.8396C22.528 26.8396 21.3544 28.0492 21.3544 29.4855C21.3544 30.3573 21.7708 31.1507 22.4504 31.6416L22.6739 31.803L21.2757 38.5824H26.6803L25.2824 31.8471L25.5062 31.6854C26.1937 31.189 26.6462 30.3919 26.6462 29.4855C26.6462 28.0133 25.4366 26.8396 24.0003 26.8396Z" fill="#F3652B"/>
</svg>
