<svg width="48" height="48" viewBox="0 0 48 48" fill="none" xmlns="http://www.w3.org/2000/svg">
<path fill-rule="evenodd" clip-rule="evenodd" d="M4.375 6.21094H5.227V41.5896L15.2178 24.0311C14.8874 23.6595 14.686 23.1694 14.686 22.6324C14.686 21.4696 15.6286 20.5269 16.7914 20.5269C17.9542 20.5269 18.8969 21.4696 18.8969 22.6324C18.8969 22.7113 18.8925 22.7893 18.884 22.8661L28.7253 26.5151C29.0801 25.8537 29.7779 25.4037 30.5816 25.4037C30.8907 25.4037 31.1847 25.4705 31.4496 25.5905L41.8911 10.5262L37.8294 12.5856L37.4441 11.8258L43.6268 8.69086V15.3404H42.7748V10.7469L32.1386 26.0919C32.4789 26.4657 32.687 26.9631 32.687 27.5091C32.687 28.6719 31.7444 29.6145 30.5816 29.6145C29.4188 29.6145 28.4762 28.6719 28.4762 27.5091C28.4762 27.4502 28.4786 27.3918 28.4833 27.3341L18.6198 23.6768C18.2571 24.3104 17.5746 24.7378 16.7914 24.7378C16.4757 24.7378 16.1758 24.6681 15.9066 24.5433L5.53353 42.7737H44.1412V43.6257H4.375V6.21094ZM16.7914 21.3789C16.0992 21.3789 15.538 21.9401 15.538 22.6324C15.538 23.0318 15.7243 23.3874 16.0165 23.6176C16.2298 23.7858 16.4984 23.8858 16.7914 23.8858C17.3514 23.8858 17.8267 23.5183 17.987 23.0102C18.0245 22.8915 18.0449 22.7647 18.0449 22.6324C18.0449 21.9401 17.4837 21.3789 16.7914 21.3789ZM30.5816 26.2557C30.0066 26.2557 29.5211 26.6431 29.3739 27.172C29.3442 27.2788 29.3282 27.3917 29.3282 27.5091C29.3282 28.2014 29.8893 28.7625 30.5816 28.7625C31.2738 28.7625 31.835 28.2014 31.835 27.5091C31.835 27.0949 31.6346 26.7277 31.3236 26.4988C31.1159 26.3459 30.8599 26.2557 30.5816 26.2557Z" fill="#F3652B"/>
</svg>
