<svg width="48" height="48" viewBox="0 0 48 48" fill="none" xmlns="http://www.w3.org/2000/svg">
<path fill-rule="evenodd" clip-rule="evenodd" d="M18.2387 9.18053C22.0448 4.47801 28.9416 3.75198 33.6465 7.55832C38.349 11.3645 39.0749 18.2634 35.2687 22.966C31.4626 27.6686 24.5636 28.3945 19.8609 24.5883C15.1583 20.7821 14.4305 13.883 18.2387 9.18053ZM34.2183 6.85161C29.1234 2.72976 21.6542 3.51571 17.5321 8.60864C13.7533 13.2749 14.0987 19.9379 18.1002 24.1919L7.49773 36.6598L7.49131 36.6677C6.79761 37.5215 6.92972 38.785 7.78547 39.478C8.64164 40.1714 9.90444 40.0366 10.5971 39.1841L20.5543 26.1904C25.5561 29.2635 32.1831 28.2233 35.9753 23.5379C40.0973 18.4451 39.3111 10.9737 34.2183 6.85161ZM8.19391 37.2445L18.736 24.8474L19.7866 25.6979L9.88769 38.6153C9.50943 39.0758 8.82122 39.1471 8.35755 38.7716C7.89313 38.3955 7.8208 37.7077 8.19391 37.2445Z" fill="#F3652B"/>
<path fill-rule="evenodd" clip-rule="evenodd" d="M12.5541 40.3366L18.1313 33.0592V43.7912H15.1684V42.8822H17.2222V35.7397L13.4632 40.6449V42.8822H15.1684V43.7912H12.5541L12.5541 40.3366Z" fill="#F3652B"/>
<path fill-rule="evenodd" clip-rule="evenodd" d="M20.9321 29.3017L21.3144 29.4513C22.5907 29.9505 23.9367 30.2324 25.3214 30.3398L25.7407 30.3724V43.7912H22.4589V42.8822H24.8317V31.2084C23.6508 31.0872 22.4896 30.8409 21.3685 30.4417L21.0726 31.018V42.8822H22.4589V43.7912H20.1636V30.7982L20.9321 29.3017Z" fill="#F3652B"/>
<path fill-rule="evenodd" clip-rule="evenodd" d="M27.7711 30.3466L28.1728 30.2995C29.7674 30.1128 31.2873 29.6595 32.6971 28.983L33.3482 28.6705V43.7912H30.5597V42.8822H32.4392V30.0968C31.2491 30.6021 29.9901 30.9606 28.6801 31.1498V42.8822H30.5597V43.7912H27.7711V30.3466Z" fill="#F3652B"/>
<path fill-rule="evenodd" clip-rule="evenodd" d="M35.3766 27.3206L35.543 27.1843C36.3005 26.5636 37.0017 25.8684 37.6286 25.0926C38.7216 23.7416 39.5303 22.2321 40.0684 20.6304L40.9537 20.7752V43.7912H37.8657V42.8822H40.0447V23.03C39.5737 23.954 39.0049 24.8367 38.3355 25.6642C37.7135 26.4338 37.0246 27.127 36.2856 27.7491V42.8822H37.8657V43.7912H35.3766V27.3206Z" fill="#F3652B"/>
</svg>
