<svg width="48" height="48" viewBox="0 0 48 48" fill="none" xmlns="http://www.w3.org/2000/svg">
<path d="M12.2224 13.1664C10.6446 15.7033 9.75674 19.0214 9.25456 21.7486C8.87678 23.8002 8.71247 25.5472 8.64295 26.4111C8.11168 26.1639 7.40129 25.6805 6.775 24.9572C5.94559 23.9993 5.2944 22.6551 5.40155 20.9476L5.47879 19.7168L4.65834 20.6375C3.6908 21.7232 2.62073 23.9623 2.38673 26.7408C2.1513 29.5364 2.76006 32.897 5.18268 36.2112C6.9884 38.6801 10.7547 40.1717 14.5817 40.2458L14.5982 39.394C10.9252 39.3229 7.4632 37.8859 5.87051 35.7084C3.57902 32.5736 3.01605 29.4208 3.23573 26.8123C3.39669 24.901 3.9767 23.2916 4.59889 22.2C4.7895 23.5644 5.40509 24.6766 6.13089 25.5149C7.0629 26.5913 8.20782 27.2513 8.93122 27.4142L9.40434 27.5207L9.449 27.0378C9.45239 27.0012 9.45709 26.9384 9.46358 26.8516C9.51143 26.212 9.65679 24.2689 10.0925 21.9029C10.5888 19.2075 11.4535 16.0158 12.9459 13.6162C14.297 11.4426 15.6256 10.1799 16.601 9.4643C16.8496 9.2819 17.0757 9.13474 17.2739 9.01692C17.0555 9.63175 16.7695 10.4958 16.4925 11.5088C15.9352 13.5471 15.4051 16.2215 15.5553 18.6909C15.7151 21.3583 16.424 23.5568 17.093 25.0891C17.4276 25.8556 17.7529 26.4569 17.996 26.8685C18.1176 27.0743 18.2187 27.2329 18.2902 27.3412C18.3279 27.3983 18.3662 27.4553 18.4062 27.5109L18.5888 27.7621C18.8484 27.6784 19.0996 27.5916 19.343 27.466C19.6097 27.3284 19.9693 27.1102 20.3547 26.7831C21.1289 26.126 21.9979 25.0364 22.4259 23.3057C23.002 20.9797 22.9189 19.4442 22.7576 17.2085C23.7558 18.6127 25.0494 20.9569 25.7851 23.7134C26.7492 27.326 26.7401 31.5826 23.9261 35.3539C21.7773 38.2338 18.1291 39.4472 14.5982 39.394L14.5817 40.2458C18.2916 40.3017 22.2474 39.0285 24.609 35.8634C27.6299 31.8148 27.614 27.262 26.6082 23.4937C25.6058 19.7374 23.6051 16.6965 22.5442 15.5885L21.7336 14.7419L21.8115 15.9114C21.8373 16.2992 21.8635 16.6619 21.8883 17.0049C22.0604 19.3876 22.1638 20.8199 21.5989 23.101C21.2186 24.6387 20.4573 25.5785 19.8033 26.1336C19.4746 26.4126 19.1707 26.5962 18.9523 26.7089L18.9099 26.7304C18.8583 26.649 18.7976 26.5504 18.7296 26.4352C18.5019 26.0496 18.1929 25.4792 17.8738 24.7482C17.2352 23.2855 16.5583 21.1858 16.4057 18.6399C16.2639 16.3079 16.7662 13.7384 17.3144 11.7335C17.5874 10.7349 17.8695 9.88448 18.0831 9.28423C18.2916 8.69819 18.5289 8.12504 18.7667 7.55047L18.7775 7.52441L17.912 7.77324C17.6672 7.8488 14.9464 8.784 12.2224 13.1664Z" fill="#F3652B"/>
<path fill-rule="evenodd" clip-rule="evenodd" d="M24.2412 13.1614H33.3951V20.6448H32.9691H28.3392L28.2326 20.3758C28.1713 20.2212 28.0262 19.8619 27.8499 19.4254C27.5325 18.6399 27.114 17.6039 26.9008 17.059C26.5796 16.2482 26.0759 15.4521 25.6437 14.8506C25.429 14.5517 25.2349 14.305 25.095 14.1336C25.0251 14.048 24.9689 13.9813 24.9306 13.9365C24.9114 13.9141 24.8967 13.8972 24.887 13.8861L24.8763 13.874L24.8739 13.8712L24.2412 13.1614ZM26.0844 14.0134C26.1636 14.1176 26.248 14.2314 26.3357 14.3535C26.7864 14.9808 27.3353 15.8421 27.6933 16.7463L27.694 16.7479C27.9069 17.2923 28.3149 18.3019 28.6299 19.0816C28.7415 19.3578 28.8415 19.6052 28.9169 19.7928H32.5431V14.0134H26.0844ZM35.5389 13.1614H45.7783V20.6448H35.5389V13.1614ZM36.3909 14.0134V19.7928H44.9263V14.0134H36.3909ZM30.7703 23.1085H45.785V30.646H30.7703V23.1085ZM31.6223 23.9606V29.794H44.933V23.9606H31.6223ZM28.7616 32.8461H33.3951V40.2485H32.9691H24.0389L24.9145 39.4989C25.3892 39.0926 26.4575 38.1275 27.3405 36.6709L27.3413 36.6696C27.6984 36.0853 28.0324 35.2195 28.2816 34.4756C28.4046 34.1084 28.5041 33.7794 28.5728 33.5424C28.6072 33.424 28.6337 33.3287 28.6517 33.2634L28.6719 33.1888L28.6769 33.17L28.6781 33.1655L28.7616 32.8461ZM29.4146 33.6981C29.4072 33.724 29.3994 33.7512 29.3911 33.7797C29.32 34.025 29.217 34.3655 29.0895 34.7462C28.8377 35.4979 28.4791 36.4415 28.0687 37.1132C27.4795 38.085 26.8155 38.8515 26.2758 39.3965H32.5431V33.6981H29.4146ZM35.3688 32.8461H45.7849V40.2485H35.3688V32.8461ZM36.2208 33.6981V39.3965H44.9329V33.6981H36.2208Z" fill="#F3652B"/>
</svg>
